<svg width="100" height="100" viewBox="0 0 100 100" fill="none" xmlns="http://www.w3.org/2000/svg">
<path d="M85.3011 95.08C85.0945 95.08 84.9345 95.0267 84.8211 94.92C84.7145 94.8067 84.6611 94.6467 84.6611 94.44V90.66C84.6611 90.4533 84.7145 90.2967 84.8211 90.19C84.9278 90.0833 85.0778 90.03 85.2711 90.03C85.4645 90.03 85.6145 90.0833 85.7211 90.19C85.8278 90.2967 85.8811 90.4533 85.8811 90.66V91.29H85.7811C85.8745 90.89 86.0578 90.5867 86.3311 90.38C86.6045 90.1733 86.9678 90.05 87.4211 90.01C87.5611 89.9967 87.6711 90.0333 87.7511 90.12C87.8378 90.2 87.8878 90.3267 87.9011 90.5C87.9145 90.6667 87.8745 90.8033 87.7811 90.91C87.6945 91.01 87.5611 91.07 87.3811 91.09L87.1611 91.11C86.7545 91.15 86.4478 91.2767 86.2411 91.49C86.0345 91.6967 85.9311 91.99 85.9311 92.37V94.44C85.9311 94.6467 85.8778 94.8067 85.7711 94.92C85.6645 95.0267 85.5078 95.08 85.3011 95.08Z" fill="#40A3C0"/>
<path d="M81.6517 95.1C81.0983 95.1 80.6217 94.9967 80.2217 94.79C79.8217 94.5833 79.5117 94.29 79.2917 93.91C79.0783 93.53 78.9717 93.08 78.9717 92.56C78.9717 92.0533 79.075 91.61 79.2817 91.23C79.495 90.85 79.785 90.5533 80.1517 90.34C80.525 90.12 80.9483 90.01 81.4217 90.01C81.7683 90.01 82.0783 90.0667 82.3517 90.18C82.6317 90.2933 82.8683 90.4567 83.0617 90.67C83.2617 90.8833 83.4117 91.1433 83.5117 91.45C83.6183 91.75 83.6717 92.09 83.6717 92.47C83.6717 92.59 83.6283 92.6833 83.5417 92.75C83.4617 92.81 83.345 92.84 83.1917 92.84H79.9817V92.12H82.7917L82.6317 92.27C82.6317 91.9633 82.585 91.7067 82.4917 91.5C82.405 91.2933 82.275 91.1367 82.1017 91.03C81.935 90.9167 81.725 90.86 81.4717 90.86C81.1917 90.86 80.9517 90.9267 80.7517 91.06C80.5583 91.1867 80.4083 91.37 80.3017 91.61C80.2017 91.8433 80.1517 92.1233 80.1517 92.45V92.52C80.1517 93.0667 80.2783 93.4767 80.5317 93.75C80.7917 94.0167 81.1717 94.15 81.6717 94.15C81.845 94.15 82.0383 94.13 82.2517 94.09C82.4717 94.0433 82.6783 93.9667 82.8717 93.86C83.0117 93.78 83.135 93.7467 83.2417 93.76C83.3483 93.7667 83.4317 93.8033 83.4917 93.87C83.5583 93.9367 83.5983 94.02 83.6117 94.12C83.625 94.2133 83.605 94.31 83.5517 94.41C83.505 94.51 83.4217 94.5967 83.3017 94.67C83.0683 94.8167 82.7983 94.9267 82.4917 95C82.1917 95.0667 81.9117 95.1 81.6517 95.1Z" fill="#40A3C0"/>
<path d="M75.1256 95.1C74.6989 95.1 74.3223 94.9967 73.9956 94.79C73.6756 94.5833 73.4256 94.29 73.2456 93.91C73.0656 93.5233 72.9756 93.07 72.9756 92.55C72.9756 92.0233 73.0656 91.5733 73.2456 91.2C73.4256 90.82 73.6756 90.5267 73.9956 90.32C74.3223 90.1133 74.6989 90.01 75.1256 90.01C75.5323 90.01 75.8856 90.11 76.1856 90.31C76.4923 90.51 76.6989 90.7733 76.8056 91.1H76.6956V88.5C76.6956 88.2933 76.7489 88.1367 76.8556 88.03C76.9623 87.9233 77.1156 87.87 77.3156 87.87C77.5156 87.87 77.6689 87.9233 77.7756 88.03C77.8889 88.1367 77.9456 88.2933 77.9456 88.5V94.44C77.9456 94.6467 77.8923 94.8067 77.7856 94.92C77.6789 95.0267 77.5256 95.08 77.3256 95.08C77.1256 95.08 76.9723 95.0267 76.8656 94.92C76.7589 94.8067 76.7056 94.6467 76.7056 94.44V93.66L76.8156 93.96C76.7156 94.3067 76.5123 94.5833 76.2056 94.79C75.8989 94.9967 75.5389 95.1 75.1256 95.1ZM75.4756 94.15C75.7223 94.15 75.9389 94.09 76.1256 93.97C76.3123 93.85 76.4556 93.6733 76.5556 93.44C76.6623 93.2 76.7156 92.9033 76.7156 92.55C76.7156 92.0167 76.6023 91.62 76.3756 91.36C76.1489 91.0933 75.8489 90.96 75.4756 90.96C75.2289 90.96 75.0123 91.02 74.8256 91.14C74.6389 91.2533 74.4923 91.43 74.3856 91.67C74.2856 91.9033 74.2356 92.1967 74.2356 92.55C74.2356 93.0767 74.3489 93.4767 74.5756 93.75C74.8023 94.0167 75.1023 94.15 75.4756 94.15Z" fill="#40A3C0"/>
<path d="M71.3162 95.07C71.1162 95.07 70.9628 95.01 70.8562 94.89C70.7495 94.77 70.6962 94.6034 70.6962 94.39V90.72C70.6962 90.5 70.7495 90.3334 70.8562 90.22C70.9628 90.1 71.1162 90.04 71.3162 90.04C71.5162 90.04 71.6695 90.1 71.7762 90.22C71.8895 90.3334 71.9462 90.5 71.9462 90.72V94.39C71.9462 94.6034 71.8928 94.77 71.7862 94.89C71.6795 95.01 71.5228 95.07 71.3162 95.07ZM71.3162 89.11C71.0828 89.11 70.8995 89.0534 70.7662 88.94C70.6395 88.82 70.5762 88.6567 70.5762 88.45C70.5762 88.2367 70.6395 88.0734 70.7662 87.96C70.8995 87.8467 71.0828 87.79 71.3162 87.79C71.5562 87.79 71.7395 87.8467 71.8662 87.96C71.9928 88.0734 72.0562 88.2367 72.0562 88.45C72.0562 88.6567 71.9928 88.82 71.8662 88.94C71.7395 89.0534 71.5562 89.11 71.3162 89.11Z" fill="#40A3C0"/>
<path d="M67.4027 95.08C67.236 95.08 67.0893 95.0367 66.9627 94.95C66.8427 94.8634 66.7427 94.73 66.6627 94.55L65.0727 90.86C65.0127 90.7134 64.9893 90.5767 65.0027 90.45C65.0227 90.3234 65.0827 90.2234 65.1827 90.15C65.2893 90.07 65.4327 90.03 65.6127 90.03C65.766 90.03 65.8893 90.0667 65.9827 90.14C66.076 90.2067 66.1593 90.3367 66.2327 90.53L67.5827 93.9H67.2827L68.6727 90.52C68.746 90.3334 68.8293 90.2067 68.9227 90.14C69.0227 90.0667 69.156 90.03 69.3227 90.03C69.4693 90.03 69.586 90.07 69.6727 90.15C69.7593 90.2234 69.8127 90.3234 69.8327 90.45C69.8527 90.57 69.8293 90.7034 69.7627 90.85L68.1427 94.55C68.0693 94.73 67.9693 94.8634 67.8427 94.95C67.7227 95.0367 67.576 95.08 67.4027 95.08Z" fill="#40A3C0"/>
<path d="M61.9893 95.1C61.4826 95.1 61.0426 94.9967 60.6693 94.79C60.2959 94.5833 60.0059 94.29 59.7993 93.91C59.5926 93.5233 59.4893 93.07 59.4893 92.55C59.4893 92.1567 59.5459 91.8067 59.6593 91.5C59.7793 91.1867 59.9493 90.92 60.1693 90.7C60.3893 90.4733 60.6526 90.3033 60.9593 90.19C61.2659 90.07 61.6093 90.01 61.9893 90.01C62.4959 90.01 62.9359 90.1133 63.3093 90.32C63.6826 90.5267 63.9726 90.82 64.1793 91.2C64.3859 91.58 64.4893 92.03 64.4893 92.55C64.4893 92.9433 64.4293 93.2967 64.3093 93.61C64.1959 93.9233 64.0293 94.1933 63.8093 94.42C63.5893 94.64 63.3259 94.81 63.0193 94.93C62.7126 95.0433 62.3693 95.1 61.9893 95.1ZM61.9893 94.15C62.2359 94.15 62.4526 94.09 62.6393 93.97C62.8259 93.85 62.9693 93.6733 63.0693 93.44C63.1759 93.2 63.2293 92.9033 63.2293 92.55C63.2293 92.0167 63.1159 91.62 62.8893 91.36C62.6626 91.0933 62.3626 90.96 61.9893 90.96C61.7426 90.96 61.5259 91.02 61.3393 91.14C61.1526 91.2533 61.0059 91.43 60.8993 91.67C60.7993 91.9033 60.7493 92.1967 60.7493 92.55C60.7493 93.0767 60.8626 93.4767 61.0893 93.75C61.3159 94.0167 61.6159 94.15 61.9893 94.15Z" fill="#40A3C0"/>
<path d="M56.5609 95.08C56.3542 95.08 56.1942 95.0267 56.0809 94.92C55.9742 94.8067 55.9209 94.6467 55.9209 94.44V90.66C55.9209 90.4533 55.9742 90.2967 56.0809 90.19C56.1876 90.0833 56.3376 90.03 56.5309 90.03C56.7242 90.03 56.8742 90.0833 56.9809 90.19C57.0876 90.2967 57.1409 90.4533 57.1409 90.66V91.29H57.0409C57.1342 90.89 57.3176 90.5867 57.5909 90.38C57.8642 90.1733 58.2276 90.05 58.6809 90.01C58.8209 89.9967 58.9309 90.0333 59.0109 90.12C59.0976 90.2 59.1476 90.3267 59.1609 90.5C59.1742 90.6667 59.1342 90.8033 59.0409 90.91C58.9542 91.01 58.8209 91.07 58.6409 91.09L58.4209 91.11C58.0142 91.15 57.7076 91.2767 57.5009 91.49C57.2942 91.6967 57.1909 91.99 57.1909 92.37V94.44C57.1909 94.6467 57.1376 94.8067 57.0309 94.92C56.9242 95.0267 56.7676 95.08 56.5609 95.08Z" fill="#40A3C0"/>
<path d="M50.2552 95.0801C50.0486 95.0801 49.8886 95.0234 49.7752 94.9101C49.6686 94.7901 49.6152 94.6267 49.6152 94.4201V88.6001C49.6152 88.3867 49.6719 88.2267 49.7852 88.1201C49.8986 88.0067 50.0586 87.9501 50.2652 87.9501H52.6752C53.4486 87.9501 54.0452 88.1434 54.4652 88.5301C54.8852 88.9167 55.0952 89.4567 55.0952 90.1501C55.0952 90.8434 54.8852 91.3867 54.4652 91.7801C54.0452 92.1667 53.4486 92.3601 52.6752 92.3601H50.8952V94.4201C50.8952 94.6267 50.8419 94.7901 50.7352 94.9101C50.6286 95.0234 50.4686 95.0801 50.2552 95.0801ZM50.8952 91.3501H52.4752C52.9286 91.3501 53.2719 91.2501 53.5052 91.0501C53.7386 90.8434 53.8552 90.5434 53.8552 90.1501C53.8552 89.7567 53.7386 89.4601 53.5052 89.2601C53.2719 89.0601 52.9286 88.9601 52.4752 88.9601H50.8952V91.3501Z" fill="#40A3C0"/>
<path d="M43.5043 95.08C43.2976 95.08 43.1376 95.0267 43.0243 94.92C42.9176 94.8067 42.8643 94.6467 42.8643 94.44V90.66C42.8643 90.4533 42.9176 90.2967 43.0243 90.19C43.1309 90.0833 43.2809 90.03 43.4743 90.03C43.6676 90.03 43.8176 90.0833 43.9243 90.19C44.0309 90.2967 44.0843 90.4533 44.0843 90.66V91.29H43.9843C44.0776 90.89 44.2609 90.5867 44.5343 90.38C44.8076 90.1733 45.1709 90.05 45.6243 90.01C45.7643 89.9967 45.8743 90.0333 45.9543 90.12C46.0409 90.2 46.0909 90.3267 46.1043 90.5C46.1176 90.6667 46.0776 90.8033 45.9843 90.91C45.8976 91.01 45.7643 91.07 45.5843 91.09L45.3643 91.11C44.9576 91.15 44.6509 91.2767 44.4443 91.49C44.2376 91.6967 44.1343 91.99 44.1343 92.37V94.44C44.1343 94.6467 44.0809 94.8067 43.9743 94.92C43.8676 95.0267 43.7109 95.08 43.5043 95.08Z" fill="#40A3C0"/>
<path d="M39.8548 95.1C39.3015 95.1 38.8248 94.9967 38.4248 94.79C38.0248 94.5833 37.7148 94.29 37.4948 93.91C37.2815 93.53 37.1748 93.08 37.1748 92.56C37.1748 92.0533 37.2781 91.61 37.4848 91.23C37.6981 90.85 37.9881 90.5533 38.3548 90.34C38.7281 90.12 39.1515 90.01 39.6248 90.01C39.9715 90.01 40.2815 90.0667 40.5548 90.18C40.8348 90.2933 41.0715 90.4567 41.2648 90.67C41.4648 90.8833 41.6148 91.1433 41.7148 91.45C41.8215 91.75 41.8748 92.09 41.8748 92.47C41.8748 92.59 41.8315 92.6833 41.7448 92.75C41.6648 92.81 41.5481 92.84 41.3948 92.84H38.1848V92.12H40.9948L40.8348 92.27C40.8348 91.9633 40.7881 91.7067 40.6948 91.5C40.6081 91.2933 40.4781 91.1367 40.3048 91.03C40.1381 90.9167 39.9281 90.86 39.6748 90.86C39.3948 90.86 39.1548 90.9267 38.9548 91.06C38.7615 91.1867 38.6115 91.37 38.5048 91.61C38.4048 91.8433 38.3548 92.1233 38.3548 92.45V92.52C38.3548 93.0667 38.4815 93.4767 38.7348 93.75C38.9948 94.0167 39.3748 94.15 39.8748 94.15C40.0481 94.15 40.2415 94.13 40.4548 94.09C40.6748 94.0433 40.8815 93.9667 41.0748 93.86C41.2148 93.78 41.3381 93.7467 41.4448 93.76C41.5515 93.7667 41.6348 93.8033 41.6948 93.87C41.7615 93.9367 41.8015 94.02 41.8148 94.12C41.8281 94.2133 41.8081 94.31 41.7548 94.41C41.7081 94.51 41.6248 94.5967 41.5048 94.67C41.2715 94.8167 41.0015 94.9267 40.6948 95C40.3948 95.0667 40.1148 95.1 39.8548 95.1Z" fill="#40A3C0"/>
<path d="M35.8955 95.1001C35.4622 95.1001 35.0989 95.0267 34.8055 94.8801C34.5189 94.7334 34.3055 94.5201 34.1655 94.2401C34.0255 93.9534 33.9555 93.6001 33.9555 93.1801V91.0501H33.4355C33.2755 91.0501 33.1522 91.0101 33.0655 90.9301C32.9789 90.8434 32.9355 90.7267 32.9355 90.5801C32.9355 90.4267 32.9789 90.3101 33.0655 90.2301C33.1522 90.1501 33.2755 90.1101 33.4355 90.1101H33.9555V89.2001C33.9555 88.9934 34.0089 88.8367 34.1155 88.7301C34.2289 88.6234 34.3855 88.5701 34.5855 88.5701C34.7855 88.5701 34.9389 88.6234 35.0455 88.7301C35.1522 88.8367 35.2055 88.9934 35.2055 89.2001V90.1101H36.2655C36.4255 90.1101 36.5489 90.1501 36.6355 90.2301C36.7222 90.3101 36.7655 90.4267 36.7655 90.5801C36.7655 90.7267 36.7222 90.8434 36.6355 90.9301C36.5489 91.0101 36.4255 91.0501 36.2655 91.0501H35.2055V93.1101C35.2055 93.4301 35.2755 93.6701 35.4155 93.8301C35.5555 93.9901 35.7822 94.0701 36.0955 94.0701C36.2089 94.0701 36.3089 94.0601 36.3955 94.0401C36.4822 94.0201 36.5589 94.0067 36.6255 94.0001C36.7055 93.9934 36.7722 94.0201 36.8255 94.0801C36.8789 94.1334 36.9055 94.2467 36.9055 94.4201C36.9055 94.5534 36.8822 94.6734 36.8355 94.7801C36.7955 94.8801 36.7189 94.9501 36.6055 94.9901C36.5189 95.0167 36.4055 95.0401 36.2655 95.0601C36.1255 95.0867 36.0022 95.1001 35.8955 95.1001Z" fill="#40A3C0"/>
<path d="M29.7968 95.1C29.4435 95.1 29.1268 95.0333 28.8468 94.9C28.5735 94.76 28.3568 94.5733 28.1968 94.34C28.0435 94.1067 27.9668 93.8433 27.9668 93.55C27.9668 93.19 28.0601 92.9067 28.2468 92.7C28.4335 92.4867 28.7368 92.3333 29.1568 92.24C29.5768 92.1467 30.1401 92.1 30.8468 92.1H31.3468V92.82H30.8568C30.4435 92.82 30.1135 92.84 29.8668 92.88C29.6201 92.92 29.4435 92.99 29.3368 93.09C29.2368 93.1833 29.1868 93.3167 29.1868 93.49C29.1868 93.71 29.2635 93.89 29.4168 94.03C29.5701 94.17 29.7835 94.24 30.0568 94.24C30.2768 94.24 30.4701 94.19 30.6368 94.09C30.8101 93.9833 30.9468 93.84 31.0468 93.66C31.1468 93.48 31.1968 93.2733 31.1968 93.04V91.89C31.1968 91.5567 31.1235 91.3167 30.9768 91.17C30.8301 91.0233 30.5835 90.95 30.2368 90.95C30.0435 90.95 29.8335 90.9733 29.6068 91.02C29.3868 91.0667 29.1535 91.1467 28.9068 91.26C28.7801 91.32 28.6668 91.3367 28.5668 91.31C28.4735 91.2833 28.4001 91.23 28.3468 91.15C28.2935 91.0633 28.2668 90.97 28.2668 90.87C28.2668 90.77 28.2935 90.6733 28.3468 90.58C28.4001 90.48 28.4901 90.4067 28.6168 90.36C28.9235 90.2333 29.2168 90.1433 29.4968 90.09C29.7835 90.0367 30.0435 90.01 30.2768 90.01C30.7568 90.01 31.1501 90.0833 31.4568 90.23C31.7701 90.3767 32.0035 90.6 32.1568 90.9C32.3101 91.1933 32.3868 91.5733 32.3868 92.04V94.44C32.3868 94.6467 32.3368 94.8067 32.2368 94.92C32.1368 95.0267 31.9935 95.08 31.8068 95.08C31.6201 95.08 31.4735 95.0267 31.3668 94.92C31.2668 94.8067 31.2168 94.6467 31.2168 94.44V93.96H31.2968C31.2501 94.1933 31.1568 94.3967 31.0168 94.57C30.8835 94.7367 30.7135 94.8667 30.5068 94.96C30.3001 95.0533 30.0635 95.1 29.7968 95.1Z" fill="#40A3C0"/>
<path d="M20.2496 95.08C20.0696 95.08 19.923 95.0367 19.8096 94.95C19.703 94.8633 19.6163 94.7267 19.5496 94.54L17.4596 88.63C17.3863 88.4167 17.3996 88.2367 17.4996 88.09C17.6063 87.9433 17.783 87.87 18.0296 87.87C18.2096 87.87 18.3496 87.9133 18.4496 88C18.5496 88.08 18.6296 88.21 18.6896 88.39L20.4896 93.73H20.0896L21.9696 88.4C22.0363 88.22 22.1196 88.0867 22.2196 88C22.3196 87.9133 22.4496 87.87 22.6096 87.87C22.7696 87.87 22.8963 87.9133 22.9896 88C23.083 88.0867 23.163 88.2233 23.2296 88.41L25.0496 93.73H24.6996L26.5296 88.39C26.5896 88.2167 26.6696 88.0867 26.7696 88C26.8696 87.9133 27.0063 87.87 27.1796 87.87C27.393 87.87 27.5496 87.9433 27.6496 88.09C27.7496 88.2367 27.763 88.4167 27.6896 88.63L25.5796 94.55C25.513 94.73 25.4263 94.8633 25.3196 94.95C25.213 95.0367 25.0696 95.08 24.8896 95.08C24.7096 95.08 24.5663 95.0367 24.4596 94.95C24.353 94.8633 24.2663 94.7267 24.1996 94.54L22.4596 89.58H22.6896L20.9296 94.55C20.863 94.73 20.7763 94.8633 20.6696 94.95C20.5696 95.0367 20.4296 95.08 20.2496 95.08Z" fill="#40A3C0"/>
<path fill-rule="evenodd" clip-rule="evenodd" d="M37.1818 64.25H62.8182C62.8182 71.475 68.3727 77 75.6364 77C82.9 77 88.4545 71.475 88.4545 64.25H97V43L84.1818 26H62.8182V51.5H7.27273V64.25H11.5455C11.5455 71.475 17.1 77 24.3636 77C31.6273 77 37.1818 71.475 37.1818 64.25ZM9.11586 62.4122H11.5455C12.5634 62.4122 13.3886 63.235 13.3886 64.25C13.3886 70.4557 18.1137 75.1622 24.3636 75.1622C30.6136 75.1622 35.3387 70.4557 35.3387 64.25C35.3387 63.235 36.1639 62.4122 37.1818 62.4122H62.8182C63.8361 62.4122 64.6613 63.235 64.6613 64.25C64.6613 70.4557 69.3864 75.1622 75.6364 75.1622C81.8863 75.1622 86.6114 70.4557 86.6114 64.25C86.6114 63.235 87.4366 62.4122 88.4545 62.4122H95.1569V43.6138L83.2616 27.8378H64.6613V51.5C64.6613 52.515 63.8361 53.3378 62.8182 53.3378H9.11586V62.4122ZM71.3636 44.8378C70.3457 44.8378 69.5205 44.015 69.5205 43V32.375C69.5205 31.36 70.3457 30.5372 71.3636 30.5372H82.0455C82.6046 30.5372 83.1335 30.7902 83.4833 31.2252L92.0288 41.8502C92.4723 42.4016 92.5593 43.1579 92.2526 43.7951C91.9459 44.4324 91.2998 44.8378 90.5909 44.8378H71.3636ZM21.934 17.5C21.934 18.515 21.1088 19.3378 20.0909 19.3378H17.9545C10.85 19.3378 4.84314 25.3193 4.84314 32.375C4.84314 39.4307 10.85 45.4122 17.9545 45.4122H43.5909C50.6954 45.4122 56.7023 39.4307 56.7023 32.375C56.7023 25.3193 50.6954 19.3378 43.5909 19.3378H28.6364C27.6184 19.3378 26.7932 18.515 26.7932 17.5V13.25C26.7932 12.235 27.6184 11.4122 28.6364 11.4122H31.066V10.8378H17.6613V11.4122H20.0909C21.1088 11.4122 21.934 12.235 21.934 13.25V17.5ZM20.0909 13.25V17.5H17.9545C9.83636 17.5 3 24.3 3 32.375C3 40.45 9.83636 47.25 17.9545 47.25H43.5909C51.7091 47.25 58.5455 40.45 58.5455 32.375C58.5455 24.3 51.7091 17.5 43.5909 17.5H28.6364V13.25H32.9091V9H15.8182V13.25H20.0909ZM24.3636 72.4628C19.9318 72.4628 16.1114 68.6693 16.1114 64.25C16.1114 59.8307 19.9318 56.0372 24.3636 56.0372C28.7955 56.0372 32.6159 59.8307 32.6159 64.25C32.6159 68.6693 28.7955 72.4628 24.3636 72.4628ZM75.6364 72.4628C71.2045 72.4628 67.3841 68.6693 67.3841 64.25C67.3841 59.8307 71.2045 56.0372 75.6364 56.0372C80.0682 56.0372 83.8886 59.8307 83.8886 64.25C83.8886 68.6693 80.0682 72.4628 75.6364 72.4628ZM71.3636 43V32.375H82.0455L90.5909 43H71.3636ZM17.9545 64.25C17.9545 67.65 20.9455 70.625 24.3636 70.625C27.7818 70.625 30.7727 67.65 30.7727 64.25C30.7727 60.85 27.7818 57.875 24.3636 57.875C20.9455 57.875 17.9545 60.85 17.9545 64.25ZM69.2273 64.25C69.2273 67.65 72.2182 70.625 75.6364 70.625C79.0545 70.625 82.0455 67.65 82.0455 64.25C82.0455 60.85 79.0545 57.875 75.6364 57.875C72.2182 57.875 69.2273 60.85 69.2273 64.25Z" fill="#40A3C0"/>
</svg>
