<svg width="100" height="100" viewBox="0 0 100 100" fill="none" xmlns="http://www.w3.org/2000/svg">
<path d="M81.1048 97.08C80.8982 97.08 80.7382 97.0267 80.6248 96.92C80.5182 96.8067 80.4648 96.6467 80.4648 96.44V92.66C80.4648 92.4533 80.5182 92.2967 80.6248 92.19C80.7315 92.0833 80.8815 92.03 81.0748 92.03C81.2682 92.03 81.4182 92.0833 81.5248 92.19C81.6315 92.2967 81.6848 92.4533 81.6848 92.66V93.29H81.5848C81.6782 92.89 81.8615 92.5867 82.1348 92.38C82.4082 92.1733 82.7715 92.05 83.2248 92.01C83.3648 91.9967 83.4748 92.0333 83.5548 92.12C83.6415 92.2 83.6915 92.3267 83.7048 92.5C83.7182 92.6667 83.6782 92.8033 83.5848 92.91C83.4982 93.01 83.3648 93.07 83.1848 93.09L82.9648 93.11C82.5582 93.15 82.2515 93.2767 82.0448 93.49C81.8382 93.6967 81.7348 93.99 81.7348 94.37V96.44C81.7348 96.6467 81.6815 96.8067 81.5748 96.92C81.4682 97.0267 81.3115 97.08 81.1048 97.08Z" fill="#40A3C0"/>
<path d="M77.4554 97.1C76.9021 97.1 76.4254 96.9967 76.0254 96.79C75.6254 96.5833 75.3154 96.29 75.0954 95.91C74.8821 95.53 74.7754 95.08 74.7754 94.56C74.7754 94.0533 74.8787 93.61 75.0854 93.23C75.2987 92.85 75.5887 92.5533 75.9554 92.34C76.3287 92.12 76.7521 92.01 77.2254 92.01C77.5721 92.01 77.8821 92.0667 78.1554 92.18C78.4354 92.2933 78.6721 92.4567 78.8654 92.67C79.0654 92.8833 79.2154 93.1433 79.3154 93.45C79.4221 93.75 79.4754 94.09 79.4754 94.47C79.4754 94.59 79.4321 94.6833 79.3454 94.75C79.2654 94.81 79.1487 94.84 78.9954 94.84H75.7854V94.12H78.5954L78.4354 94.27C78.4354 93.9633 78.3887 93.7067 78.2954 93.5C78.2087 93.2933 78.0787 93.1367 77.9054 93.03C77.7387 92.9167 77.5287 92.86 77.2754 92.86C76.9954 92.86 76.7554 92.9267 76.5554 93.06C76.3621 93.1867 76.2121 93.37 76.1054 93.61C76.0054 93.8433 75.9554 94.1233 75.9554 94.45V94.52C75.9554 95.0667 76.0821 95.4767 76.3354 95.75C76.5954 96.0167 76.9754 96.15 77.4754 96.15C77.6487 96.15 77.8421 96.13 78.0554 96.09C78.2754 96.0433 78.4821 95.9667 78.6754 95.86C78.8154 95.78 78.9387 95.7467 79.0454 95.76C79.1521 95.7667 79.2354 95.8033 79.2954 95.87C79.3621 95.9367 79.4021 96.02 79.4154 96.12C79.4287 96.2133 79.4087 96.31 79.3554 96.41C79.3087 96.51 79.2254 96.5967 79.1054 96.67C78.8721 96.8167 78.6021 96.9267 78.2954 97C77.9954 97.0667 77.7154 97.1 77.4554 97.1Z" fill="#40A3C0"/>
<path d="M73.4961 97.1001C73.0628 97.1001 72.6995 97.0267 72.4061 96.8801C72.1195 96.7334 71.9061 96.5201 71.7661 96.2401C71.6261 95.9534 71.5561 95.6001 71.5561 95.1801V93.0501H71.0361C70.8761 93.0501 70.7528 93.0101 70.6661 92.9301C70.5795 92.8434 70.5361 92.7267 70.5361 92.5801C70.5361 92.4267 70.5795 92.3101 70.6661 92.2301C70.7528 92.1501 70.8761 92.1101 71.0361 92.1101H71.5561V91.2001C71.5561 90.9934 71.6095 90.8367 71.7161 90.7301C71.8295 90.6234 71.9861 90.5701 72.1861 90.5701C72.3861 90.5701 72.5395 90.6234 72.6461 90.7301C72.7528 90.8367 72.8061 90.9934 72.8061 91.2001V92.1101H73.8661C74.0261 92.1101 74.1495 92.1501 74.2361 92.2301C74.3228 92.3101 74.3661 92.4267 74.3661 92.5801C74.3661 92.7267 74.3228 92.8434 74.2361 92.9301C74.1495 93.0101 74.0261 93.0501 73.8661 93.0501H72.8061V95.1101C72.8061 95.4301 72.8761 95.6701 73.0161 95.8301C73.1561 95.9901 73.3828 96.0701 73.6961 96.0701C73.8095 96.0701 73.9095 96.0601 73.9961 96.0401C74.0828 96.0201 74.1595 96.0067 74.2261 96.0001C74.3061 95.9934 74.3728 96.0201 74.4261 96.0801C74.4795 96.1334 74.5061 96.2467 74.5061 96.4201C74.5061 96.5534 74.4828 96.6734 74.4361 96.7801C74.3961 96.8801 74.3195 96.9501 74.2061 96.9901C74.1195 97.0167 74.0061 97.0401 73.8661 97.0601C73.7261 97.0867 73.6028 97.1001 73.4961 97.1001Z" fill="#40A3C0"/>
<path d="M67.3974 97.1C67.044 97.1 66.7274 97.0333 66.4474 96.9C66.1741 96.76 65.9574 96.5733 65.7974 96.34C65.644 96.1067 65.5674 95.8433 65.5674 95.55C65.5674 95.19 65.6607 94.9067 65.8474 94.7C66.034 94.4867 66.3374 94.3333 66.7574 94.24C67.1774 94.1467 67.7407 94.1 68.4474 94.1H68.9474V94.82H68.4574C68.044 94.82 67.7141 94.84 67.4674 94.88C67.2207 94.92 67.044 94.99 66.9374 95.09C66.8374 95.1833 66.7874 95.3167 66.7874 95.49C66.7874 95.71 66.8641 95.89 67.0174 96.03C67.1707 96.17 67.384 96.24 67.6574 96.24C67.8774 96.24 68.0707 96.19 68.2374 96.09C68.4107 95.9833 68.5474 95.84 68.6474 95.66C68.7474 95.48 68.7974 95.2733 68.7974 95.04V93.89C68.7974 93.5567 68.724 93.3167 68.5774 93.17C68.4307 93.0233 68.1841 92.95 67.8374 92.95C67.644 92.95 67.434 92.9733 67.2074 93.02C66.9874 93.0667 66.754 93.1467 66.5074 93.26C66.3807 93.32 66.2674 93.3367 66.1674 93.31C66.074 93.2833 66.0007 93.23 65.9474 93.15C65.8941 93.0633 65.8674 92.97 65.8674 92.87C65.8674 92.77 65.8941 92.6733 65.9474 92.58C66.0007 92.48 66.0907 92.4067 66.2174 92.36C66.5241 92.2333 66.8174 92.1433 67.0974 92.09C67.384 92.0367 67.6441 92.01 67.8774 92.01C68.3574 92.01 68.7507 92.0833 69.0574 92.23C69.3707 92.3767 69.604 92.6 69.7574 92.9C69.9107 93.1933 69.9874 93.5733 69.9874 94.04V96.44C69.9874 96.6467 69.9374 96.8067 69.8374 96.92C69.7374 97.0267 69.594 97.08 69.4074 97.08C69.2207 97.08 69.0741 97.0267 68.9674 96.92C68.8674 96.8067 68.8174 96.6467 68.8174 96.44V95.96H68.8974C68.8507 96.1933 68.7574 96.3967 68.6174 96.57C68.484 96.7367 68.3141 96.8667 68.1074 96.96C67.9007 97.0533 67.664 97.1 67.3974 97.1Z" fill="#40A3C0"/>
<path d="M59.2492 97.08C59.0826 97.08 58.9392 97.04 58.8192 96.96C58.6992 96.8734 58.6026 96.74 58.5292 96.56L57.0792 92.86C57.0192 92.7 56.9992 92.56 57.0192 92.44C57.0459 92.3134 57.1092 92.2134 57.2092 92.14C57.3092 92.0667 57.4426 92.03 57.6092 92.03C57.7559 92.03 57.8759 92.0667 57.9692 92.14C58.0625 92.2067 58.1426 92.3367 58.2092 92.53L59.4192 95.86H59.1892L60.4392 92.45C60.4926 92.3034 60.5625 92.1967 60.6492 92.13C60.7425 92.0634 60.8626 92.03 61.0092 92.03C61.1559 92.03 61.2759 92.0667 61.3692 92.14C61.4626 92.2067 61.5325 92.31 61.5792 92.45L62.8092 95.86H62.5992L63.8192 92.5C63.8859 92.32 63.9692 92.1967 64.0692 92.13C64.1759 92.0634 64.2926 92.03 64.4192 92.03C64.5792 92.03 64.7026 92.07 64.7892 92.15C64.8759 92.23 64.9259 92.3334 64.9392 92.46C64.9526 92.58 64.9292 92.7134 64.8692 92.86L63.4292 96.56C63.3626 96.7334 63.2659 96.8634 63.1392 96.95C63.0192 97.0367 62.8759 97.08 62.7092 97.08C62.5426 97.08 62.3959 97.0367 62.2692 96.95C62.1492 96.8634 62.0559 96.7334 61.9892 96.56L60.6792 93.09H61.2492L59.9692 96.55C59.9025 96.73 59.8092 96.8634 59.6892 96.95C59.5692 97.0367 59.4226 97.08 59.2492 97.08Z" fill="#40A3C0"/>
<path d="M50.8898 98.9C50.5298 98.9 50.1798 98.8667 49.8398 98.8C49.5065 98.7333 49.2032 98.63 48.9298 98.49C48.8032 98.4233 48.7165 98.3433 48.6698 98.25C48.6298 98.1567 48.6165 98.06 48.6298 97.96C48.6498 97.8667 48.6898 97.7833 48.7498 97.71C48.8165 97.6367 48.8965 97.5867 48.9898 97.56C49.0832 97.5333 49.1798 97.5467 49.2798 97.6C49.5732 97.7467 49.8498 97.84 50.1098 97.88C50.3765 97.9267 50.6032 97.95 50.7898 97.95C51.2365 97.95 51.5698 97.84 51.7898 97.62C52.0165 97.4067 52.1298 97.0867 52.1298 96.66V95.76H52.2198C52.1198 96.1 51.9098 96.3733 51.5898 96.58C51.2765 96.78 50.9198 96.88 50.5198 96.88C50.0798 96.88 49.6965 96.78 49.3698 96.58C49.0432 96.3733 48.7898 96.0867 48.6098 95.72C48.4298 95.3533 48.3398 94.9267 48.3398 94.44C48.3398 94.0733 48.3898 93.7433 48.4898 93.45C48.5965 93.15 48.7432 92.8933 48.9298 92.68C49.1232 92.4667 49.3532 92.3033 49.6198 92.19C49.8932 92.07 50.1932 92.01 50.5198 92.01C50.9332 92.01 51.2932 92.1133 51.5998 92.32C51.9132 92.52 52.1165 92.7867 52.2098 93.12L52.1098 93.37V92.66C52.1098 92.4533 52.1632 92.2967 52.2698 92.19C52.3832 92.0833 52.5365 92.03 52.7298 92.03C52.9298 92.03 53.0832 92.0833 53.1898 92.19C53.2965 92.2967 53.3498 92.4533 53.3498 92.66V96.51C53.3498 97.3033 53.1398 97.9 52.7198 98.3C52.2998 98.7 51.6898 98.9 50.8898 98.9ZM50.8598 95.93C51.1198 95.93 51.3432 95.87 51.5298 95.75C51.7165 95.63 51.8598 95.46 51.9598 95.24C52.0665 95.0133 52.1198 94.7467 52.1198 94.44C52.1198 93.98 52.0065 93.62 51.7798 93.36C51.5532 93.0933 51.2465 92.96 50.8598 92.96C50.5998 92.96 50.3765 93.02 50.1898 93.14C50.0032 93.26 49.8565 93.43 49.7498 93.65C49.6498 93.87 49.5998 94.1333 49.5998 94.44C49.5998 94.9 49.7132 95.2633 49.9398 95.53C50.1665 95.7967 50.4732 95.93 50.8598 95.93Z" fill="#40A3C0"/>
<path d="M43.3798 97.08C43.1798 97.08 43.0264 97.0267 42.9198 96.92C42.8131 96.8067 42.7598 96.6467 42.7598 96.44V92.66C42.7598 92.4533 42.8131 92.2967 42.9198 92.19C43.0264 92.0833 43.1764 92.03 43.3698 92.03C43.5631 92.03 43.7131 92.0833 43.8198 92.19C43.9264 92.2967 43.9798 92.4533 43.9798 92.66V93.34L43.8698 93.09C44.0164 92.7367 44.2431 92.47 44.5498 92.29C44.8631 92.1033 45.2164 92.01 45.6098 92.01C46.0031 92.01 46.3264 92.0833 46.5798 92.23C46.8331 92.3767 47.0231 92.6 47.1498 92.9C47.2764 93.1933 47.3398 93.5667 47.3398 94.02V96.44C47.3398 96.6467 47.2864 96.8067 47.1798 96.92C47.0731 97.0267 46.9198 97.08 46.7198 97.08C46.5198 97.08 46.3631 97.0267 46.2498 96.92C46.1431 96.8067 46.0898 96.6467 46.0898 96.44V94.08C46.0898 93.7 46.0164 93.4233 45.8698 93.25C45.7298 93.0767 45.5098 92.99 45.2098 92.99C44.8431 92.99 44.5498 93.1067 44.3298 93.34C44.1164 93.5667 44.0098 93.87 44.0098 94.25V96.44C44.0098 96.8667 43.7998 97.08 43.3798 97.08Z" fill="#40A3C0"/>
<path d="M40.8308 97.07C40.6308 97.07 40.4775 97.01 40.3708 96.89C40.2642 96.77 40.2108 96.6034 40.2108 96.39V92.72C40.2108 92.5 40.2642 92.3334 40.3708 92.22C40.4775 92.1 40.6308 92.04 40.8308 92.04C41.0308 92.04 41.1842 92.1 41.2908 92.22C41.4042 92.3334 41.4608 92.5 41.4608 92.72V96.39C41.4608 96.6034 41.4075 96.77 41.3008 96.89C41.1942 97.01 41.0375 97.07 40.8308 97.07ZM40.8308 91.11C40.5975 91.11 40.4142 91.0534 40.2808 90.94C40.1542 90.82 40.0908 90.6567 40.0908 90.45C40.0908 90.2367 40.1542 90.0734 40.2808 89.96C40.4142 89.8467 40.5975 89.79 40.8308 89.79C41.0708 89.79 41.2542 89.8467 41.3808 89.96C41.5075 90.0734 41.5708 90.2367 41.5708 90.45C41.5708 90.6567 41.5075 90.82 41.3808 90.94C41.2542 91.0534 41.0708 91.11 40.8308 91.11Z" fill="#40A3C0"/>
<path d="M35.4696 97.08C35.2696 97.08 35.1163 97.0267 35.0096 96.92C34.9029 96.8067 34.8496 96.6467 34.8496 96.44V90.5C34.8496 90.2933 34.9029 90.1367 35.0096 90.03C35.1163 89.9233 35.2696 89.87 35.4696 89.87C35.6696 89.87 35.8229 89.9233 35.9296 90.03C36.0429 90.1367 36.0996 90.2933 36.0996 90.5V94.19H36.1196L37.7696 92.45C37.9029 92.3167 38.0196 92.2133 38.1196 92.14C38.2196 92.0667 38.3563 92.03 38.5296 92.03C38.7029 92.03 38.8329 92.0767 38.9196 92.17C39.0129 92.2567 39.0596 92.3633 39.0596 92.49C39.0596 92.6167 38.9996 92.7433 38.8796 92.87L37.1396 94.71V94.19L39.0496 96.25C39.1696 96.3767 39.2229 96.5067 39.2096 96.64C39.2029 96.7667 39.1496 96.8733 39.0496 96.96C38.9496 97.04 38.8229 97.08 38.6696 97.08C38.4829 97.08 38.3329 97.0433 38.2196 96.97C38.1129 96.8967 37.9929 96.7867 37.8596 96.64L36.1196 94.82H36.0996V96.44C36.0996 96.8667 35.8896 97.08 35.4696 97.08Z" fill="#40A3C0"/>
<path d="M29.62 97.08C29.42 97.08 29.2667 97.0267 29.16 96.92C29.0533 96.8067 29 96.6467 29 96.44V92.66C29 92.4533 29.0533 92.2967 29.16 92.19C29.2667 92.0833 29.4167 92.03 29.61 92.03C29.8033 92.03 29.9533 92.0833 30.06 92.19C30.1667 92.2967 30.22 92.4533 30.22 92.66V93.34L30.11 93.09C30.2567 92.7367 30.4833 92.47 30.79 92.29C31.1033 92.1033 31.4567 92.01 31.85 92.01C32.2433 92.01 32.5667 92.0833 32.82 92.23C33.0733 92.3767 33.2633 92.6 33.39 92.9C33.5167 93.1933 33.58 93.5667 33.58 94.02V96.44C33.58 96.6467 33.5267 96.8067 33.42 96.92C33.3133 97.0267 33.16 97.08 32.96 97.08C32.76 97.08 32.6033 97.0267 32.49 96.92C32.3833 96.8067 32.33 96.6467 32.33 96.44V94.08C32.33 93.7 32.2567 93.4233 32.11 93.25C31.97 93.0767 31.75 92.99 31.45 92.99C31.0833 92.99 30.79 93.1067 30.57 93.34C30.3567 93.5667 30.25 93.87 30.25 94.25V96.44C30.25 96.8667 30.04 97.08 29.62 97.08Z" fill="#40A3C0"/>
<path d="M27.0711 97.07C26.8711 97.07 26.7177 97.01 26.6111 96.89C26.5044 96.77 26.4511 96.6034 26.4511 96.39V92.72C26.4511 92.5 26.5044 92.3334 26.6111 92.22C26.7177 92.1 26.8711 92.04 27.0711 92.04C27.2711 92.04 27.4244 92.1 27.5311 92.22C27.6444 92.3334 27.7011 92.5 27.7011 92.72V96.39C27.7011 96.6034 27.6477 96.77 27.5411 96.89C27.4344 97.01 27.2777 97.07 27.0711 97.07ZM27.0711 91.11C26.8377 91.11 26.6544 91.0534 26.5211 90.94C26.3944 90.82 26.3311 90.6567 26.3311 90.45C26.3311 90.2367 26.3944 90.0734 26.5211 89.96C26.6544 89.8467 26.8377 89.79 27.0711 89.79C27.3111 89.79 27.4944 89.8467 27.6211 89.96C27.7477 90.0734 27.8111 90.2367 27.8111 90.45C27.8111 90.6567 27.7477 90.82 27.6211 90.94C27.4944 91.0534 27.3111 91.11 27.0711 91.11Z" fill="#40A3C0"/>
<path d="M23.1752 97.08C22.9685 97.08 22.8085 97.0267 22.6952 96.92C22.5885 96.8067 22.5352 96.6467 22.5352 96.44V92.66C22.5352 92.4533 22.5885 92.2967 22.6952 92.19C22.8018 92.0833 22.9518 92.03 23.1452 92.03C23.3385 92.03 23.4885 92.0833 23.5952 92.19C23.7018 92.2967 23.7552 92.4533 23.7552 92.66V93.29H23.6552C23.7485 92.89 23.9318 92.5867 24.2052 92.38C24.4785 92.1733 24.8418 92.05 25.2952 92.01C25.4352 91.9967 25.5452 92.0333 25.6252 92.12C25.7118 92.2 25.7618 92.3267 25.7752 92.5C25.7885 92.6667 25.7485 92.8033 25.6552 92.91C25.5685 93.01 25.4352 93.07 25.2552 93.09L25.0352 93.11C24.6285 93.15 24.3218 93.2767 24.1152 93.49C23.9085 93.6967 23.8052 93.99 23.8052 94.37V96.44C23.8052 96.6467 23.7518 96.8067 23.6452 96.92C23.5385 97.0267 23.3818 97.08 23.1752 97.08Z" fill="#40A3C0"/>
<path d="M15.7181 97.0001C15.4981 97.0001 15.3281 96.9434 15.2081 96.8301C15.0948 96.7101 15.0381 96.5401 15.0381 96.3201V90.6301C15.0381 90.4101 15.0948 90.2434 15.2081 90.1301C15.3281 90.0101 15.4981 89.9501 15.7181 89.9501H17.6581C18.8381 89.9501 19.7481 90.2534 20.3881 90.8601C21.0348 91.4667 21.3581 92.3367 21.3581 93.4701C21.3581 94.0367 21.2748 94.5401 21.1081 94.9801C20.9481 95.4134 20.7081 95.7801 20.3881 96.0801C20.0748 96.3801 19.6881 96.6101 19.2281 96.7701C18.7748 96.9234 18.2514 97.0001 17.6581 97.0001H15.7181ZM16.3181 95.9401H17.5781C17.9914 95.9401 18.3481 95.8901 18.6481 95.7901C18.9548 95.6834 19.2081 95.5301 19.4081 95.3301C19.6148 95.1234 19.7681 94.8667 19.8681 94.5601C19.9681 94.2467 20.0181 93.8834 20.0181 93.4701C20.0181 92.6434 19.8148 92.0267 19.4081 91.6201C19.0014 91.2134 18.3914 91.0101 17.5781 91.0101H16.3181V95.9401Z" fill="#40A3C0"/>
<path d="M58.5 19.275H59.4V18.375V13.1406C59.4 10.8906 57.5633 9.1 55.3125 9.1H44.6875C42.4367 9.1 40.6 10.8906 40.6 13.1406V18.375V19.275H41.5H58.5ZM35.7049 24.2575L35.7018 24.2589C33.5045 25.2804 32.1 27.4531 32.1 29.8514C32.1 31.6406 32.8664 33.2469 34.0952 34.3698C32.8603 35.6558 32.1 37.392 32.1 39.3125C32.1 41.3794 32.9822 43.2389 34.3964 44.5469C32.9822 45.8548 32.1 47.7144 32.1 49.7812C32.1 51.8481 32.9822 53.7077 34.3964 55.0156C32.9822 56.3235 32.1 58.1831 32.1 60.25C32.1 62.3169 32.9822 64.1764 34.3964 65.4844C32.9822 66.7923 32.1 68.6519 32.1 70.7188C32.1 74.6961 35.371 77.9 39.375 77.9H60.625C64.629 77.9 67.9 74.6961 67.9 70.7188C67.9 68.6502 67.0078 66.7926 65.6012 65.4866C67.0168 64.1786 67.9 62.318 67.9 60.25C67.9 58.1815 67.0078 56.3239 65.6012 55.0178C67.0168 53.7098 67.9 51.8493 67.9 49.7812C67.9 47.7127 67.0078 45.8551 65.6012 44.5491C67.0168 43.2411 67.9 41.3805 67.9 39.3125C67.9 37.392 67.1397 35.6559 65.9048 34.3698C67.1336 33.2469 67.9 31.6406 67.9 29.8514C67.9 27.4391 66.4812 25.2657 64.2957 24.2577L64.2951 24.2575L61.0545 22.7657L61.0521 22.7646C59.476 22.0446 57.7549 21.6625 56.0164 21.6625H43.9836C42.2451 21.6625 40.524 22.0446 38.9479 22.7646L38.9455 22.7657L35.7049 24.2575ZM43.625 42.6C42.9407 42.6 42.4 42.0482 42.4 41.4062C42.4 40.7643 42.9407 40.2125 43.625 40.2125H56.375C57.0593 40.2125 57.6 40.7643 57.6 41.4062C57.6 42.0482 57.0593 42.6 56.375 42.6H43.625ZM42.4 58.1562C42.4 57.5143 42.9407 56.9625 43.625 56.9625H56.375C57.0593 56.9625 57.6 57.5143 57.6 58.1562C57.6 58.7982 57.0593 59.35 56.375 59.35H43.625C42.9407 59.35 42.4 58.7982 42.4 58.1562Z" stroke="#40A3C0" stroke-width="1.8"/>
</svg>
