<svg width="100" height="100" viewBox="0 0 100 100" fill="none" xmlns="http://www.w3.org/2000/svg">
<path d="M68.997 97.08C68.797 97.08 68.6436 97.0267 68.537 96.92C68.4303 96.8067 68.377 96.6467 68.377 96.44V92.66C68.377 92.4533 68.4303 92.2967 68.537 92.19C68.6436 92.0833 68.7936 92.03 68.9869 92.03C69.1803 92.03 69.3303 92.0833 69.437 92.19C69.5436 92.2967 69.597 92.4533 69.597 92.66V93.34L69.4869 93.09C69.6336 92.7367 69.8603 92.47 70.167 92.29C70.4803 92.1033 70.8336 92.01 71.227 92.01C71.6203 92.01 71.9436 92.0833 72.197 92.23C72.4503 92.3767 72.6403 92.6 72.767 92.9C72.8936 93.1933 72.957 93.5667 72.957 94.02V96.44C72.957 96.6467 72.9036 96.8067 72.797 96.92C72.6903 97.0267 72.537 97.08 72.337 97.08C72.137 97.08 71.9803 97.0267 71.867 96.92C71.7603 96.8067 71.707 96.6467 71.707 96.44V94.08C71.707 93.7 71.6336 93.4233 71.4869 93.25C71.3469 93.0767 71.127 92.99 70.827 92.99C70.4603 92.99 70.167 93.1067 69.947 93.34C69.7336 93.5667 69.627 93.87 69.627 94.25V96.44C69.627 96.8667 69.417 97.08 68.997 97.08Z" fill="#40A3C0"/>
<path d="M64.5185 97.1C64.1651 97.1 63.8485 97.0333 63.5685 96.9C63.2951 96.76 63.0785 96.5733 62.9185 96.34C62.7651 96.1067 62.6885 95.8433 62.6885 95.55C62.6885 95.19 62.7818 94.9067 62.9685 94.7C63.1551 94.4867 63.4585 94.3333 63.8785 94.24C64.2985 94.1467 64.8618 94.1 65.5685 94.1H66.0685V94.82H65.5785C65.1651 94.82 64.8351 94.84 64.5885 94.88C64.3418 94.92 64.1651 94.99 64.0585 95.09C63.9585 95.1833 63.9085 95.3167 63.9085 95.49C63.9085 95.71 63.9851 95.89 64.1385 96.03C64.2918 96.17 64.5051 96.24 64.7785 96.24C64.9985 96.24 65.1918 96.19 65.3585 96.09C65.5318 95.9833 65.6685 95.84 65.7685 95.66C65.8685 95.48 65.9185 95.2733 65.9185 95.04V93.89C65.9185 93.5567 65.8451 93.3167 65.6985 93.17C65.5518 93.0233 65.3051 92.95 64.9585 92.95C64.7651 92.95 64.5551 92.9733 64.3285 93.02C64.1085 93.0667 63.8751 93.1467 63.6285 93.26C63.5018 93.32 63.3885 93.3367 63.2885 93.31C63.1951 93.2833 63.1218 93.23 63.0685 93.15C63.0151 93.0633 62.9885 92.97 62.9885 92.87C62.9885 92.77 63.0151 92.6733 63.0685 92.58C63.1218 92.48 63.2118 92.4067 63.3385 92.36C63.6451 92.2333 63.9385 92.1433 64.2185 92.09C64.5051 92.0367 64.7651 92.01 64.9985 92.01C65.4785 92.01 65.8718 92.0833 66.1785 92.23C66.4918 92.3767 66.7251 92.6 66.8785 92.9C67.0318 93.1933 67.1085 93.5733 67.1085 94.04V96.44C67.1085 96.6467 67.0585 96.8067 66.9585 96.92C66.8585 97.0267 66.7151 97.08 66.5285 97.08C66.3418 97.08 66.1951 97.0267 66.0885 96.92C65.9885 96.8067 65.9385 96.6467 65.9385 96.44V95.96H66.0185C65.9718 96.1933 65.8785 96.3967 65.7385 96.57C65.6051 96.7367 65.4351 96.8667 65.2285 96.96C65.0218 97.0533 64.7851 97.1 64.5185 97.1Z" fill="#40A3C0"/>
<path d="M60.9793 97.07C60.7793 97.07 60.6259 97.01 60.5193 96.89C60.4126 96.77 60.3593 96.6034 60.3593 96.39V92.72C60.3593 92.5 60.4126 92.3334 60.5193 92.22C60.6259 92.1 60.7793 92.04 60.9793 92.04C61.1793 92.04 61.3326 92.1 61.4393 92.22C61.5526 92.3334 61.6093 92.5 61.6093 92.72V96.39C61.6093 96.6034 61.5559 96.77 61.4493 96.89C61.3426 97.01 61.1859 97.07 60.9793 97.07ZM60.9793 91.11C60.7459 91.11 60.5626 91.0534 60.4293 90.94C60.3026 90.82 60.2393 90.6567 60.2393 90.45C60.2393 90.2367 60.3026 90.0734 60.4293 89.96C60.5626 89.8467 60.7459 89.79 60.9793 89.79C61.2193 89.79 61.4026 89.8467 61.5293 89.96C61.6559 90.0734 61.7193 90.2367 61.7193 90.45C61.7193 90.6567 61.6559 90.82 61.5293 90.94C61.4026 91.0534 61.2193 91.11 60.9793 91.11Z" fill="#40A3C0"/>
<path d="M57.903 97.1C57.3897 97.1 56.943 96.9967 56.563 96.79C56.183 96.5767 55.8897 96.2767 55.683 95.89C55.4764 95.5033 55.373 95.05 55.373 94.53C55.373 94.1367 55.4297 93.7867 55.543 93.48C55.663 93.1667 55.833 92.9033 56.053 92.69C56.273 92.47 56.5397 92.3033 56.853 92.19C57.1664 92.07 57.5164 92.01 57.903 92.01C58.123 92.01 58.3597 92.04 58.613 92.1C58.873 92.16 59.1164 92.26 59.343 92.4C59.4497 92.4667 59.5197 92.5467 59.553 92.64C59.5864 92.7333 59.593 92.83 59.573 92.93C59.553 93.0233 59.5097 93.1067 59.443 93.18C59.383 93.2467 59.3064 93.29 59.213 93.31C59.1197 93.3233 59.0164 93.3 58.903 93.24C58.7564 93.1533 58.6064 93.09 58.453 93.05C58.2997 93.0033 58.153 92.98 58.013 92.98C57.793 92.98 57.5997 93.0167 57.433 93.09C57.2664 93.1567 57.123 93.2567 57.003 93.39C56.8897 93.5167 56.803 93.6767 56.743 93.87C56.683 94.0633 56.653 94.2867 56.653 94.54C56.653 95.0333 56.7697 95.4233 57.003 95.71C57.243 95.99 57.5797 96.13 58.013 96.13C58.153 96.13 58.2964 96.11 58.443 96.07C58.5964 96.03 58.7497 95.9667 58.903 95.88C59.0164 95.82 59.1164 95.8 59.203 95.82C59.2964 95.84 59.373 95.8867 59.433 95.96C59.493 96.0267 59.5297 96.11 59.543 96.21C59.5564 96.3033 59.543 96.3967 59.503 96.49C59.4697 96.5833 59.403 96.66 59.303 96.72C59.083 96.8533 58.8497 96.95 58.603 97.01C58.3564 97.07 58.123 97.1 57.903 97.1Z" fill="#40A3C0"/>
<path d="M53.7136 97.07C53.5136 97.07 53.3603 97.01 53.2536 96.89C53.147 96.77 53.0936 96.6034 53.0936 96.39V92.72C53.0936 92.5 53.147 92.3334 53.2536 92.22C53.3603 92.1 53.5136 92.04 53.7136 92.04C53.9136 92.04 54.067 92.1 54.1736 92.22C54.287 92.3334 54.3436 92.5 54.3436 92.72V96.39C54.3436 96.6034 54.2903 96.77 54.1836 96.89C54.077 97.01 53.9203 97.07 53.7136 97.07ZM53.7136 91.11C53.4803 91.11 53.297 91.0534 53.1636 90.94C53.037 90.82 52.9736 90.6567 52.9736 90.45C52.9736 90.2367 53.037 90.0734 53.1636 89.96C53.297 89.8467 53.4803 89.79 53.7136 89.79C53.9536 89.79 54.137 89.8467 54.2636 89.96C54.3903 90.0734 54.4536 90.2367 54.4536 90.45C54.4536 90.6567 54.3903 90.82 54.2636 90.94C54.137 91.0534 53.9536 91.11 53.7136 91.11Z" fill="#40A3C0"/>
<path d="M49.8177 97.08C49.6111 97.08 49.4511 97.0267 49.3377 96.92C49.2311 96.8067 49.1777 96.6467 49.1777 96.44V92.66C49.1777 92.4533 49.2311 92.2967 49.3377 92.19C49.4444 92.0833 49.5944 92.03 49.7877 92.03C49.9811 92.03 50.1311 92.0833 50.2377 92.19C50.3444 92.2967 50.3977 92.4533 50.3977 92.66V93.29H50.2977C50.3911 92.89 50.5744 92.5867 50.8477 92.38C51.1211 92.1733 51.4844 92.05 51.9377 92.01C52.0777 91.9967 52.1877 92.0333 52.2677 92.12C52.3544 92.2 52.4044 92.3267 52.4177 92.5C52.4311 92.6667 52.3911 92.8033 52.2977 92.91C52.2111 93.01 52.0777 93.07 51.8977 93.09L51.6777 93.11C51.2711 93.15 50.9644 93.2767 50.7577 93.49C50.5511 93.6967 50.4477 93.99 50.4477 94.37V96.44C50.4477 96.6467 50.3944 96.8067 50.2877 96.92C50.1811 97.0267 50.0244 97.08 49.8177 97.08Z" fill="#40A3C0"/>
<path d="M47.5801 97.1001C47.1468 97.1001 46.7834 97.0267 46.4901 96.8801C46.2034 96.7334 45.9901 96.5201 45.8501 96.2401C45.7101 95.9534 45.6401 95.6001 45.6401 95.1801V93.0501H45.1201C44.9601 93.0501 44.8368 93.0101 44.7501 92.9301C44.6634 92.8434 44.6201 92.7267 44.6201 92.5801C44.6201 92.4267 44.6634 92.3101 44.7501 92.2301C44.8368 92.1501 44.9601 92.1101 45.1201 92.1101H45.6401V91.2001C45.6401 90.9934 45.6935 90.8367 45.8001 90.7301C45.9135 90.6234 46.0701 90.5701 46.2701 90.5701C46.4701 90.5701 46.6235 90.6234 46.7301 90.7301C46.8368 90.8367 46.8901 90.9934 46.8901 91.2001V92.1101H47.9501C48.1101 92.1101 48.2334 92.1501 48.3201 92.2301C48.4068 92.3101 48.4501 92.4267 48.4501 92.5801C48.4501 92.7267 48.4068 92.8434 48.3201 92.9301C48.2334 93.0101 48.1101 93.0501 47.9501 93.0501H46.8901V95.1101C46.8901 95.4301 46.9601 95.6701 47.1001 95.8301C47.2401 95.9901 47.4668 96.0701 47.7801 96.0701C47.8935 96.0701 47.9934 96.0601 48.0801 96.0401C48.1668 96.0201 48.2435 96.0067 48.3101 96.0001C48.3901 95.9934 48.4568 96.0201 48.5101 96.0801C48.5634 96.1334 48.5901 96.2467 48.5901 96.4201C48.5901 96.5534 48.5668 96.6734 48.5201 96.7801C48.4801 96.8801 48.4035 96.9501 48.2901 96.9901C48.2035 97.0167 48.0901 97.0401 47.9501 97.0601C47.8101 97.0867 47.6868 97.1001 47.5801 97.1001Z" fill="#40A3C0"/>
<path d="M42.864 97.1C42.3507 97.1 41.904 96.9967 41.524 96.79C41.144 96.5767 40.8507 96.2767 40.644 95.89C40.4373 95.5033 40.334 95.05 40.334 94.53C40.334 94.1367 40.3907 93.7867 40.504 93.48C40.624 93.1667 40.794 92.9033 41.014 92.69C41.234 92.47 41.5007 92.3033 41.814 92.19C42.1273 92.07 42.4773 92.01 42.864 92.01C43.084 92.01 43.3207 92.04 43.574 92.1C43.834 92.16 44.0773 92.26 44.304 92.4C44.4107 92.4667 44.4807 92.5467 44.514 92.64C44.5473 92.7333 44.554 92.83 44.534 92.93C44.514 93.0233 44.4707 93.1067 44.404 93.18C44.344 93.2467 44.2673 93.29 44.174 93.31C44.0807 93.3233 43.9773 93.3 43.864 93.24C43.7173 93.1533 43.5673 93.09 43.414 93.05C43.2607 93.0033 43.114 92.98 42.974 92.98C42.754 92.98 42.5607 93.0167 42.394 93.09C42.2273 93.1567 42.084 93.2567 41.964 93.39C41.8507 93.5167 41.764 93.6767 41.704 93.87C41.644 94.0633 41.614 94.2867 41.614 94.54C41.614 95.0333 41.7307 95.4233 41.964 95.71C42.204 95.99 42.5407 96.13 42.974 96.13C43.114 96.13 43.2573 96.11 43.404 96.07C43.5573 96.03 43.7107 95.9667 43.864 95.88C43.9773 95.82 44.0773 95.8 44.164 95.82C44.2573 95.84 44.334 95.8867 44.394 95.96C44.454 96.0267 44.4907 96.11 44.504 96.21C44.5173 96.3033 44.504 96.3967 44.464 96.49C44.4307 96.5833 44.364 96.66 44.264 96.72C44.044 96.8533 43.8107 96.95 43.564 97.01C43.3173 97.07 43.084 97.1 42.864 97.1Z" fill="#40A3C0"/>
<path d="M37.5941 97.1C37.0407 97.1 36.5641 96.9967 36.1641 96.79C35.7641 96.5833 35.4541 96.29 35.2341 95.91C35.0207 95.53 34.9141 95.08 34.9141 94.56C34.9141 94.0533 35.0174 93.61 35.2241 93.23C35.4374 92.85 35.7274 92.5533 36.0941 92.34C36.4674 92.12 36.8907 92.01 37.3641 92.01C37.7107 92.01 38.0207 92.0667 38.2941 92.18C38.5741 92.2933 38.8107 92.4567 39.0041 92.67C39.2041 92.8833 39.3541 93.1433 39.4541 93.45C39.5607 93.75 39.6141 94.09 39.6141 94.47C39.6141 94.59 39.5707 94.6833 39.4841 94.75C39.4041 94.81 39.2874 94.84 39.1341 94.84H35.9241V94.12H38.7341L38.5741 94.27C38.5741 93.9633 38.5274 93.7067 38.4341 93.5C38.3474 93.2933 38.2174 93.1367 38.0441 93.03C37.8774 92.9167 37.6674 92.86 37.4141 92.86C37.1341 92.86 36.8941 92.9267 36.6941 93.06C36.5007 93.1867 36.3507 93.37 36.2441 93.61C36.1441 93.8433 36.0941 94.1233 36.0941 94.45V94.52C36.0941 95.0667 36.2207 95.4767 36.4741 95.75C36.7341 96.0167 37.1141 96.15 37.6141 96.15C37.7874 96.15 37.9807 96.13 38.1941 96.09C38.4141 96.0433 38.6207 95.9667 38.8141 95.86C38.9541 95.78 39.0774 95.7467 39.1841 95.76C39.2907 95.7667 39.3741 95.8033 39.4341 95.87C39.5007 95.9367 39.5407 96.02 39.5541 96.12C39.5674 96.2133 39.5474 96.31 39.4941 96.41C39.4474 96.51 39.3641 96.5967 39.2441 96.67C39.0107 96.8167 38.7407 96.9267 38.4341 97C38.1341 97.0667 37.8541 97.1 37.5941 97.1Z" fill="#40A3C0"/>
<path d="M33.7091 97.1C33.1557 97.1 32.7391 96.9433 32.4591 96.63C32.1791 96.31 32.0391 95.8433 32.0391 95.23V90.5C32.0391 90.2933 32.0924 90.1367 32.1991 90.03C32.3057 89.9233 32.4591 89.87 32.6591 89.87C32.8591 89.87 33.0124 89.9233 33.1191 90.03C33.2324 90.1367 33.2891 90.2933 33.2891 90.5V95.17C33.2891 95.4767 33.3524 95.7033 33.4791 95.85C33.6124 95.9967 33.7991 96.07 34.0391 96.07C34.0924 96.07 34.1424 96.07 34.1891 96.07C34.2357 96.0633 34.2824 96.0567 34.3291 96.05C34.4224 96.0367 34.4857 96.0633 34.5191 96.13C34.5524 96.19 34.5691 96.3167 34.5691 96.51C34.5691 96.6767 34.5357 96.8067 34.4691 96.9C34.4024 96.9933 34.2924 97.05 34.1391 97.07C34.0724 97.0767 34.0024 97.0833 33.9291 97.09C33.8557 97.0967 33.7824 97.1 33.7091 97.1Z" fill="#40A3C0"/>
<path d="M26.8724 97.0001C26.6524 97.0001 26.4824 96.9434 26.3624 96.8301C26.249 96.7101 26.1924 96.5401 26.1924 96.3201V90.6301C26.1924 90.4101 26.249 90.2434 26.3624 90.1301C26.4824 90.0101 26.6524 89.9501 26.8724 89.9501H30.4424C30.609 89.9501 30.7357 89.9934 30.8224 90.0801C30.9157 90.1667 30.9624 90.2901 30.9624 90.4501C30.9624 90.6167 30.9157 90.7467 30.8224 90.8401C30.7357 90.9267 30.609 90.9701 30.4424 90.9701H27.4224V92.9101H30.2224C30.3957 92.9101 30.5257 92.9534 30.6124 93.0401C30.699 93.1267 30.7424 93.2534 30.7424 93.4201C30.7424 93.5867 30.699 93.7134 30.6124 93.8001C30.5257 93.8867 30.3957 93.9301 30.2224 93.9301H27.4224V95.9801H30.4424C30.609 95.9801 30.7357 96.0234 30.8224 96.1101C30.9157 96.1967 30.9624 96.3234 30.9624 96.4901C30.9624 96.6567 30.9157 96.7834 30.8224 96.8701C30.7357 96.9567 30.609 97.0001 30.4424 97.0001H26.8724Z" fill="#40A3C0"/>
<path fill-rule="evenodd" clip-rule="evenodd" d="M58.1425 67.5918L55.9318 69.25H23.2917V30.6667H56.0726L57.4107 31.3357L68.7917 37.0262V59.6041L58.1425 67.5918ZM57.3448 28.0697L57.8443 28.2901L68.9888 33.864L68.9899 33.8646C69.747 34.2426 70.3936 34.8096 70.8674 35.5107C71.3337 36.2009 71.6169 36.998 71.6907 37.8272L71.7083 38.2995V48.5H79.1667V43.0439C79.1671 42.6722 79.3094 42.3147 79.5646 42.0444C79.8197 41.7741 80.1685 41.6115 80.5395 41.5897C80.9106 41.5679 81.276 41.6886 81.561 41.9272C81.8342 42.1559 82.0138 42.4762 82.0669 42.8275L82.0833 43.1014V56.8728C82.0829 57.2445 81.9406 57.602 81.6854 57.8723C81.4303 58.1426 81.0815 58.3052 80.7105 58.327C80.3394 58.3488 79.974 58.2281 79.689 57.9895C79.4158 57.7608 79.2362 57.4404 79.1831 57.0892L79.1667 56.8152V51.4167H71.7083V58.6043C71.7084 59.2968 71.5621 59.9815 71.2791 60.6136C71.0015 61.2337 70.5984 61.7894 70.0955 62.2457L69.7078 62.5629L58.2158 71.1827L58.1425 67.5918L58.215 71.1834C57.4979 71.7204 56.6481 72.0511 55.7572 72.1402L55.2161 72.1667H25.291C24.0506 72.1671 22.8559 71.6986 21.9464 70.8552C21.0462 70.0204 20.4912 68.8794 20.3897 67.6568L20.375 67.2167V32.666C20.3746 31.4256 20.8431 30.2309 21.6865 29.3214C22.5213 28.4212 23.6623 27.8662 24.8848 27.7647L25.325 27.75H41.125V20.2917H35.6679C35.2966 20.291 34.9394 20.1487 34.6694 19.8938C34.3991 19.6386 34.2365 19.2899 34.2147 18.9188C34.1929 18.5477 34.3136 18.1824 34.5522 17.8973C34.7809 17.6241 35.1013 17.4445 35.4525 17.3914L35.7264 17.375H49.4986C49.87 17.3756 50.2272 17.5179 50.4973 17.7729C50.7676 18.0281 50.9302 18.3768 50.952 18.7479C50.9738 19.1189 50.8531 19.4843 50.6145 19.7693C50.3858 20.0425 50.0654 20.2222 49.7142 20.2753L49.4402 20.2917H44.0417V27.75H55.6006C56.1967 27.75 56.7877 27.8583 57.3448 28.0697ZM37.9405 49.1048L42.7534 41.0779L43.0609 40.5685C43.2528 40.2506 43.5587 40.0179 43.9163 39.9178C44.2739 39.8177 44.6561 39.8578 44.9852 40.0298C45.3142 40.2019 45.5652 40.493 45.687 40.8437C45.8032 41.1781 45.7935 41.5427 45.6611 41.8696L45.5332 42.1115L41.7066 48.5H49.4378C50.522 48.5 51.2249 49.6121 50.8191 50.5616L50.6879 50.8119L45.5598 59.3645L45.5552 59.3723C45.3656 59.6951 45.0591 59.9326 44.6992 60.0357C44.3393 60.1387 43.9535 60.0994 43.6217 59.9259C43.29 59.7523 43.0377 59.4578 42.9171 59.1034C42.8011 58.7623 42.8156 58.3908 42.9569 58.0604L43.0918 57.8052L46.9184 51.4167H39.1905C38.9408 51.4167 38.6951 51.3541 38.4759 51.2346C38.2567 51.1151 38.0709 50.9426 37.9356 50.7327C37.8003 50.5228 37.7198 50.2824 37.7015 50.0334C37.6842 49.7995 37.7224 49.565 37.8125 49.3489L37.9405 49.1048Z" fill="#40A3C0"/>
</svg>
