<svg width="173" height="230" viewBox="0 0 173 230" fill="none" xmlns="http://www.w3.org/2000/svg">
<path d="M77.6097 225.402C12.1484 130.737 0 121.029 0 86.2508C0 38.6116 38.7232 0 86.5 0C134.277 0 173 38.6116 173 86.2508C173 121.029 160.852 130.718 95.3903 225.364C94.3962 226.791 93.0709 227.958 91.5273 228.766C89.9837 229.573 88.2674 229.996 86.5244 230C84.7815 230.004 83.0633 229.588 81.5162 228.787C79.9692 227.987 78.6389 226.825 77.6386 225.402L77.6193 225.364L77.6097 225.402Z" fill="#43B9C3"/>
<path fill-rule="evenodd" clip-rule="evenodd" d="M82.5844 229.269C83.8375 229.754 85.1735 230.003 86.5244 230C88.2674 229.996 89.9837 229.573 91.5273 228.766C93.0709 227.958 94.3962 226.791 95.3903 225.364C107.092 208.445 117.09 194.242 125.619 182.124C164.807 126.452 173 114.812 173 86.2508C173 38.6116 134.277 0 86.5 0C38.7232 0 0 38.6116 0 86.2508C0 114.822 8.19903 126.473 47.4207 182.209C54.8607 192.782 63.4169 204.94 73.2452 219.102C74.6621 221.144 76.1054 223.227 77.5757 225.353C77.5813 225.361 77.5869 225.369 77.5925 225.377C77.5982 225.385 77.604 225.394 77.6097 225.402L77.6193 225.364L77.6386 225.402L77.6447 225.411C78.6443 226.83 79.9723 227.988 81.5162 228.787C81.8642 228.967 82.2208 229.128 82.5844 229.269ZM82.5698 222.378C83.0073 222.918 83.5526 223.363 84.1724 223.683C84.8951 224.057 85.6977 224.252 86.512 224.25C87.3262 224.248 88.1279 224.05 88.849 223.673C89.568 223.297 90.1856 222.754 90.6495 222.09C102.492 204.968 112.55 190.68 121.092 178.545C136.295 156.948 146.696 142.173 153.801 130.393C159.278 121.314 162.579 114.35 164.55 107.717C166.507 101.127 167.233 94.5862 167.233 86.2508C167.233 41.7873 131.092 5.75005 86.5 5.75005C41.908 5.75005 5.76667 41.7873 5.76667 86.2508C5.76667 94.5861 6.49297 101.129 8.45041 107.72C10.421 114.357 13.7225 121.323 19.1991 130.406C26.311 142.201 36.7235 156.997 51.9489 178.631C58.6827 188.2 66.358 199.106 75.1055 211.682L82.5698 222.378Z" fill="white"/>
<ellipse cx="86.4998" cy="83.3759" rx="69.2" ry="69.0006" fill="white"/>
</svg>
