<svg width="100" height="100" viewBox="0 0 100 100" fill="none" xmlns="http://www.w3.org/2000/svg">
<path d="M69.9828 95.08C69.7761 95.08 69.6161 95.0267 69.5028 94.92C69.3961 94.8067 69.3428 94.6467 69.3428 94.44V90.66C69.3428 90.4533 69.3961 90.2967 69.5028 90.19C69.6094 90.0833 69.7594 90.03 69.9528 90.03C70.1461 90.03 70.2961 90.0833 70.4028 90.19C70.5094 90.2967 70.5628 90.4533 70.5628 90.66V91.29H70.4628C70.5561 90.89 70.7394 90.5867 71.0128 90.38C71.2861 90.1733 71.6494 90.05 72.1028 90.01C72.2428 89.9967 72.3528 90.0333 72.4328 90.12C72.5194 90.2 72.5694 90.3267 72.5828 90.5C72.5961 90.6667 72.5561 90.8033 72.4628 90.91C72.3761 91.01 72.2428 91.07 72.0628 91.09L71.8428 91.11C71.4361 91.15 71.1294 91.2767 70.9228 91.49C70.7161 91.6967 70.6128 91.99 70.6128 92.37V94.44C70.6128 94.6467 70.5594 94.8067 70.4528 94.92C70.3461 95.0267 70.1894 95.08 69.9828 95.08Z" fill="#40A3C0"/>
<path d="M66.3333 95.1C65.78 95.1 65.3033 94.9967 64.9033 94.79C64.5033 94.5833 64.1933 94.29 63.9733 93.91C63.76 93.53 63.6533 93.08 63.6533 92.56C63.6533 92.0533 63.7567 91.61 63.9633 91.23C64.1767 90.85 64.4667 90.5533 64.8333 90.34C65.2067 90.12 65.63 90.01 66.1033 90.01C66.45 90.01 66.76 90.0667 67.0333 90.18C67.3133 90.2933 67.55 90.4567 67.7433 90.67C67.9433 90.8833 68.0933 91.1433 68.1933 91.45C68.3 91.75 68.3533 92.09 68.3533 92.47C68.3533 92.59 68.31 92.6833 68.2233 92.75C68.1433 92.81 68.0267 92.84 67.8733 92.84H64.6633V92.12H67.4733L67.3133 92.27C67.3133 91.9633 67.2667 91.7067 67.1733 91.5C67.0867 91.2933 66.9567 91.1367 66.7833 91.03C66.6167 90.9167 66.4067 90.86 66.1533 90.86C65.8733 90.86 65.6333 90.9267 65.4333 91.06C65.24 91.1867 65.09 91.37 64.9833 91.61C64.8833 91.8433 64.8333 92.1233 64.8333 92.45V92.52C64.8333 93.0667 64.96 93.4767 65.2133 93.75C65.4733 94.0167 65.8533 94.15 66.3533 94.15C66.5267 94.15 66.72 94.13 66.9333 94.09C67.1533 94.0433 67.36 93.9667 67.5533 93.86C67.6933 93.78 67.8167 93.7467 67.9233 93.76C68.03 93.7667 68.1133 93.8033 68.1733 93.87C68.24 93.9367 68.28 94.02 68.2933 94.12C68.3067 94.2133 68.2867 94.31 68.2333 94.41C68.1867 94.51 68.1033 94.5967 67.9833 94.67C67.75 94.8167 67.48 94.9267 67.1733 95C66.8733 95.0667 66.5933 95.1 66.3333 95.1Z" fill="#40A3C0"/>
<path d="M60.7468 95.1C60.3334 95.1 59.9701 94.9967 59.6568 94.79C59.3501 94.5833 59.1468 94.3067 59.0468 93.96L59.1568 93.71V94.44C59.1568 94.6467 59.1034 94.8067 58.9968 94.92C58.8901 95.0267 58.7401 95.08 58.5468 95.08C58.3468 95.08 58.1934 95.0267 58.0868 94.92C57.9801 94.8067 57.9268 94.6467 57.9268 94.44V88.5C57.9268 88.2933 57.9801 88.1367 58.0868 88.03C58.1934 87.9233 58.3468 87.87 58.5468 87.87C58.7468 87.87 58.9001 87.9233 59.0068 88.03C59.1201 88.1367 59.1768 88.2933 59.1768 88.5V91.1H59.0568C59.1634 90.7733 59.3701 90.51 59.6768 90.31C59.9834 90.11 60.3401 90.01 60.7468 90.01C61.1801 90.01 61.5568 90.1133 61.8768 90.32C62.1968 90.5267 62.4468 90.82 62.6268 91.2C62.8068 91.5733 62.8968 92.0233 62.8968 92.55C62.8968 93.07 62.8068 93.5233 62.6268 93.91C62.4468 94.29 62.1934 94.5833 61.8668 94.79C61.5468 94.9967 61.1734 95.1 60.7468 95.1ZM60.3968 94.15C60.6434 94.15 60.8601 94.09 61.0468 93.97C61.2334 93.85 61.3768 93.6733 61.4768 93.44C61.5834 93.2 61.6368 92.9033 61.6368 92.55C61.6368 92.0167 61.5234 91.62 61.2968 91.36C61.0701 91.0933 60.7701 90.96 60.3968 90.96C60.1501 90.96 59.9334 91.02 59.7468 91.14C59.5601 91.2533 59.4134 91.43 59.3068 91.67C59.2068 91.9033 59.1568 92.1967 59.1568 92.55C59.1568 93.0767 59.2701 93.4767 59.4968 93.75C59.7234 94.0167 60.0234 94.15 60.3968 94.15Z" fill="#40A3C0"/>
<path d="M49.7977 95.08C49.5977 95.08 49.4444 95.0267 49.3377 94.92C49.2311 94.8067 49.1777 94.6467 49.1777 94.44V90.66C49.1777 90.4533 49.2311 90.2967 49.3377 90.19C49.4444 90.0833 49.5944 90.03 49.7877 90.03C49.9811 90.03 50.1311 90.0833 50.2377 90.19C50.3444 90.2967 50.3977 90.4533 50.3977 90.66V91.39L50.2877 91.09C50.4211 90.7567 50.6277 90.4933 50.9077 90.3C51.1877 90.1067 51.5211 90.01 51.9077 90.01C52.3011 90.01 52.6244 90.1033 52.8777 90.29C53.1311 90.4767 53.3077 90.7633 53.4077 91.15H53.2677C53.4011 90.7967 53.6211 90.52 53.9277 90.32C54.2344 90.1133 54.5877 90.01 54.9877 90.01C55.3611 90.01 55.6677 90.0833 55.9077 90.23C56.1544 90.3767 56.3377 90.6 56.4577 90.9C56.5777 91.1933 56.6377 91.5667 56.6377 92.02V94.44C56.6377 94.6467 56.5811 94.8067 56.4677 94.92C56.3611 95.0267 56.2077 95.08 56.0077 95.08C55.8077 95.08 55.6544 95.0267 55.5477 94.92C55.4411 94.8067 55.3877 94.6467 55.3877 94.44V92.07C55.3877 91.6967 55.3244 91.4233 55.1977 91.25C55.0777 91.0767 54.8711 90.99 54.5777 90.99C54.2511 90.99 53.9944 91.1067 53.8077 91.34C53.6211 91.5667 53.5277 91.8833 53.5277 92.29V94.44C53.5277 94.6467 53.4744 94.8067 53.3677 94.92C53.2611 95.0267 53.1077 95.08 52.9077 95.08C52.7077 95.08 52.5511 95.0267 52.4377 94.92C52.3311 94.8067 52.2777 94.6467 52.2777 94.44V92.07C52.2777 91.6967 52.2144 91.4233 52.0877 91.25C51.9677 91.0767 51.7644 90.99 51.4777 90.99C51.1511 90.99 50.8944 91.1067 50.7077 91.34C50.5211 91.5667 50.4277 91.8833 50.4277 92.29V94.44C50.4277 94.8667 50.2177 95.08 49.7977 95.08Z" fill="#40A3C0"/>
<path d="M45.1359 95.1C44.7293 95.1 44.3926 95.0267 44.1259 94.88C43.8593 94.7267 43.6593 94.5 43.5259 94.2C43.3993 93.9 43.3359 93.5267 43.3359 93.08V90.66C43.3359 90.4467 43.3893 90.29 43.4959 90.19C43.6026 90.0834 43.7559 90.03 43.9559 90.03C44.1559 90.03 44.3093 90.0834 44.4159 90.19C44.5293 90.29 44.5859 90.4467 44.5859 90.66V93.1C44.5859 93.4467 44.6559 93.7034 44.7959 93.87C44.9359 94.0367 45.1593 94.12 45.4659 94.12C45.7993 94.12 46.0726 94.0067 46.2859 93.78C46.4993 93.5467 46.6059 93.24 46.6059 92.86V90.66C46.6059 90.4467 46.6593 90.29 46.7659 90.19C46.8726 90.0834 47.0259 90.03 47.2259 90.03C47.4259 90.03 47.5793 90.0834 47.6859 90.19C47.7993 90.29 47.8559 90.4467 47.8559 90.66V94.44C47.8559 94.8667 47.6526 95.08 47.2459 95.08C47.0526 95.08 46.9026 95.0267 46.7959 94.92C46.6893 94.8067 46.6359 94.6467 46.6359 94.44V93.68L46.7759 93.98C46.6359 94.34 46.4226 94.6167 46.1359 94.81C45.8559 95.0034 45.5226 95.1 45.1359 95.1Z" fill="#40A3C0"/>
<path d="M41.8429 95.1C41.2895 95.1 40.8729 94.9433 40.5929 94.63C40.3129 94.31 40.1729 93.8433 40.1729 93.23V88.5C40.1729 88.2933 40.2262 88.1367 40.3329 88.03C40.4395 87.9233 40.5929 87.87 40.7929 87.87C40.9929 87.87 41.1462 87.9233 41.2529 88.03C41.3662 88.1367 41.4229 88.2933 41.4229 88.5V93.17C41.4229 93.4767 41.4862 93.7033 41.6129 93.85C41.7462 93.9967 41.9329 94.07 42.1729 94.07C42.2262 94.07 42.2762 94.07 42.3229 94.07C42.3695 94.0633 42.4162 94.0567 42.4629 94.05C42.5562 94.0367 42.6195 94.0633 42.6529 94.13C42.6862 94.19 42.7029 94.3167 42.7029 94.51C42.7029 94.6767 42.6695 94.8067 42.6029 94.9C42.5362 94.9933 42.4262 95.05 42.2729 95.07C42.2062 95.0767 42.1362 95.0833 42.0629 95.09C41.9895 95.0967 41.9162 95.1 41.8429 95.1Z" fill="#40A3C0"/>
<path d="M34.4095 95.08C34.2029 95.08 34.0429 95.0233 33.9295 94.91C33.8229 94.79 33.7695 94.6266 33.7695 94.42V88.6C33.7695 88.3866 33.8262 88.2266 33.9395 88.12C34.0529 88.0066 34.2129 87.95 34.4195 87.95H36.8295C37.6029 87.95 38.1995 88.1433 38.6195 88.53C39.0395 88.9166 39.2495 89.4566 39.2495 90.15C39.2495 90.8433 39.0395 91.3866 38.6195 91.78C38.1995 92.1666 37.6029 92.36 36.8295 92.36H35.0495V94.42C35.0495 94.6266 34.9962 94.79 34.8895 94.91C34.7829 95.0233 34.6229 95.08 34.4095 95.08ZM35.0495 91.35H36.6295C37.0829 91.35 37.4262 91.25 37.6595 91.05C37.8929 90.8433 38.0095 90.5433 38.0095 90.15C38.0095 89.7566 37.8929 89.46 37.6595 89.26C37.4262 89.06 37.0829 88.96 36.6295 88.96H35.0495V91.35Z" fill="#40A3C0"/>
<path fill-rule="evenodd" clip-rule="evenodd" d="M49.9605 6L50.6062 6.59603L82.6926 36.7661C83.0775 37.121 83.1046 37.7244 82.7532 38.1133C82.4018 38.5021 81.8049 38.5295 81.4201 38.1743L49.9794 8.60017L17.5901 38.1649C17.2104 38.5258 16.6132 38.5072 16.2562 38.1235C15.8992 37.7398 15.9175 37.1363 16.2972 36.7755L49.3235 6.60534L49.9605 6ZM49.9832 10.9088L50.6135 11.4993L75.9601 35.2514C76.5378 35.7925 76.8662 36.5529 76.8662 37.3491V68.4636C76.8662 73.7305 72.6413 78 67.4296 78H31.5704C26.3587 78 22.1338 73.7305 22.1338 68.4636V39.3775V37.7957C22.1338 36.7103 22.5912 35.6765 23.3915 34.9529L49.3426 11.4881L49.9832 10.9088ZM49.9605 13.4885L24.65 36.3745C24.2498 36.7363 24.0211 37.2532 24.0211 37.7957V39.3775V40.3665C24.9805 41.6055 26.4687 42.3001 28.3841 43.1942L28.3855 43.1948C28.645 43.316 28.9124 43.4408 29.1874 43.5711C31.9162 44.8637 35.3958 45.3652 39.4129 43.7043L39.4517 43.6884L39.4927 43.6796C40.8366 43.3886 41.8756 43.287 42.6708 43.3285C43.4607 43.369 44.0559 43.5529 44.4622 43.8798C44.6909 44.0637 44.8444 44.2807 44.9376 44.5117L51.807 35.9359C51.3595 34.3751 51.0713 32.1008 51.616 30.0622C51.9053 28.9801 52.434 27.9487 53.3131 27.1366C54.1944 26.3217 55.4702 25.9785 57.0625 25.7774H59.0083L58.4648 26.5033L55.2449 30.2019L56.209 33.8195L60.3839 34.6633L63.9788 30.5763L64.5918 29.8792L64.792 30.7896C65.1243 32.3006 65.0866 34.552 63.8188 36.3438C62.5514 38.1351 60.1487 39.3407 56.0407 39.018L48.6627 48.486C48.7982 48.7384 48.9374 49.0536 49.0333 49.3898C49.1375 49.7553 49.2063 50.2005 49.1165 50.6307C50.2676 51.5238 50.7969 53.114 50.6778 54.4984C50.612 55.2625 50.3464 56.0113 49.8324 56.5756C49.4548 56.9901 48.9598 57.2862 48.3567 57.4189C48.7312 58.4704 48.3935 59.6578 47.7452 60.4768C47.3396 60.989 46.7857 61.3993 46.1406 61.5711C45.8072 61.66 45.4568 61.6833 45.1011 61.6288C45.217 62.3501 45.084 63.1506 44.6904 63.8104C44.3805 64.33 43.9054 64.7705 43.2578 65.0211C42.734 65.2241 42.1172 65.2953 41.4115 65.2045C41.3488 65.4504 41.2398 65.6846 41.0747 65.8932C40.7862 66.2573 40.3607 66.4999 39.8245 66.607C38.8338 66.8045 37.4091 66.554 35.4746 65.7056L33.0708 68.5399C33.5853 69.7157 33.947 71.4134 33.4209 72.9799C32.9994 74.2348 32.0386 75.323 30.3138 75.9875C30.7225 76.0569 31.1423 76.0927 31.5704 76.0927H67.4296C71.5989 76.0927 74.9789 72.6772 74.9789 68.4636V56.0662H65.5628C64.746 56.1417 63.4381 56.7009 62.3273 57.7602C61.222 58.814 60.3521 60.3236 60.3521 62.2649V62.7417H59.8803H53.2746H52.7798L52.8034 62.2421C52.964 58.8322 55.2751 51.5672 63.2348 49.482C63.277 49.3213 63.3483 49.1509 63.4607 48.9931C63.6898 48.6713 64.0673 48.4371 64.5986 48.4371H65.5422V47.0066H61.2958H60.8239V46.5298V44.6225V44.1457H61.2958H65.149C65.168 44.0876 65.1399 43.9563 65.1098 43.8161C65.0712 43.636 65.0295 43.4415 65.0809 43.3695C65.2555 43.1242 65.6716 43.1498 66.095 43.1758C66.2269 43.1839 66.3596 43.1921 66.4859 43.1921H66.4994C66.7247 43.1921 66.9477 43.1921 67.1444 43.2088C67.3434 43.2256 67.5611 43.2619 67.7585 43.3615C67.973 43.47 68.1401 43.6409 68.2441 43.8775C68.2813 43.9622 68.309 44.0521 68.329 44.1457H72.1479H72.6197V44.6225V46.5298V47.0066H72.1479H68.3732V48.4371H69.3169C69.766 48.4371 70.1003 48.8068 70.2162 49.3907H74.9789V37.3491C74.9789 37.0837 74.8694 36.8304 74.6768 36.6497L49.9605 13.4885ZM74.9789 50.3444H69.7887H69.3169V49.8675C69.3169 49.5784 69.2627 49.4424 69.2331 49.3907H67.9014H67.4296V48.9139V46.5298V46.053H67.9014H71.6761V45.0993H67.9014H67.4296V44.6225C67.4296 44.4167 67.403 44.3129 67.3818 44.2649C67.373 44.2449 67.3659 44.2342 67.3564 44.2267L67.3471 44.2202L67.3365 44.2146C67.3194 44.2058 67.2945 44.1964 67.2584 44.1876C67.2137 44.1764 67.1518 44.1662 67.066 44.1587C67.017 44.155 66.9647 44.1522 66.9085 44.1499C66.8581 44.148 66.8046 44.1471 66.7471 44.1466L66.6395 44.1462L66.4859 44.1457C66.2622 44.1457 66.1679 44.229 66.1139 44.3049C66.0425 44.4055 66.0141 44.5401 66.0141 44.6225V45.0993H65.5422H61.7676V46.053H66.0141H66.4859V46.5298V48.9139V49.3907H66.0141H64.5986C64.3749 49.3907 64.2806 49.4741 64.2266 49.55C64.1552 49.6506 64.1268 49.7851 64.1268 49.8675V50.2443L63.7642 50.3313C56.4961 52.0803 54.1289 58.4019 53.7836 61.7881H59.4238C59.5554 59.7625 60.5157 58.1761 61.6797 57.0664C62.9196 55.8846 64.4312 55.2043 65.5031 55.1144L65.5226 55.1126H65.5422H74.9789V50.3444ZM28.6095 75.4837C31.0714 74.9989 32.1318 73.8511 32.5273 72.6735C32.9865 71.3059 32.6121 69.7278 32.0921 68.6768L31.952 68.3937L32.1558 68.1535L34.9868 64.8157L35.0172 64.7799C33.0938 63.7827 30.9516 61.9962 30.9516 61.9962C30.9516 61.9962 30.8439 62.0353 30.8606 62.1368L30.5234 62.5629L28.636 64.947L28.4523 65.1789L28.1653 65.1147C27.5049 64.9661 26.4685 64.879 25.5272 65.0904C24.9301 65.2245 24.4034 65.469 24.0211 65.8699V68.4636C24.0211 68.8533 24.05 69.2365 24.1058 69.6105L25.0146 67.7735L25.1252 67.55L25.3699 67.5146L28.6727 67.0378L28.9395 66.9996L29.1079 67.2119L30.9952 69.596L31.1556 69.7986L31.0744 70.0449L30.1307 72.9058L30.0488 73.154L29.7975 73.2174L26.4444 74.0644C27.0757 74.6548 27.8068 75.1372 28.6095 75.4837ZM47.725 48.1284L47.4945 48.4022L47.0567 48.8194C47.0567 48.8194 46.86 48.7656 46.6484 48.8194C46.1283 48.9507 45.6648 48.7249 45.2456 48.2667C44.824 47.8057 44.5224 47.1798 44.3795 46.7468C44.3342 46.6097 44.3795 46.6759 44.3795 46.6759L44.6766 46.3529L52.6977 36.3396L52.8573 36.1403L52.7809 35.8963C52.3251 34.4374 52.016 32.2233 52.527 30.3109C52.7803 29.3633 53.2306 28.5047 53.9499 27.8402C54.3971 27.4266 55.6624 27.0955 56.589 26.8531C56.7609 26.8081 56.9212 26.7661 57.0625 26.7273L54.3315 29.8792L54.2183 30.0622L54.2797 30.269L55.6537 34.7462L55.8812 34.8238L60.4642 35.6519L60.7296 35.7054L60.9094 35.501L64.0095 31.9765C64.0925 33.1914 63.8747 34.6251 63.0511 35.7892C62.0158 37.2527 59.9277 38.4192 55.8812 38.0471L55.6375 38.0248L55.5258 38.273L47.725 48.1284ZM24.0211 64.6662C24.4269 64.4213 24.8753 64.2602 25.3225 64.1596C26.2991 63.9403 27.3299 63.9938 28.0779 64.1252L30.0488 61.7881C29.6068 61.3347 29.1916 60.9228 28.824 60.558C28.0426 59.7828 27.4761 59.2207 27.3239 58.9272C26.8633 58.0387 26.5371 57.5899 26.0275 56.889C25.8556 56.6524 25.6626 56.3869 25.4366 56.0662C25.1129 55.6069 24.7885 55.3129 24.464 55.0188C24.3163 54.885 24.1687 54.7511 24.0211 54.6018V64.6662ZM55.8577 70.003C55.5417 69.6454 55.3642 69.1602 55.3642 68.6545C55.3642 67.9961 55.9236 66.7351 57.0493 64.9722C58.175 66.7351 58.7344 67.9961 58.7344 68.6545C58.7344 69.1602 58.5569 69.6454 58.2408 70.003C57.9248 70.3606 57.4962 70.5618 57.0493 70.5618C56.6024 70.5618 56.1738 70.3606 55.8577 70.003ZM59.4084 68.6545C59.4084 67.6715 58.6222 66.0185 57.0493 63.6954C55.4764 66.0185 54.6901 67.6715 54.6901 68.6545C54.6901 69.3623 54.9387 70.0416 55.3811 70.5422C55.8236 71.0433 56.4236 71.3245 57.0493 71.3245C57.675 71.3245 58.275 71.0433 58.7175 70.5422C59.1599 70.0416 59.4084 69.3623 59.4084 68.6545ZM26 68.5L28.5 68L30 70L29 72.5L25.5 73.5L24.5 71L26 68.5Z" fill="#40A3C0"/>
</svg>
