<svg width="100" height="100" viewBox="0 0 100 100" fill="none" xmlns="http://www.w3.org/2000/svg">
<path d="M59.1741 97.1C58.6208 97.1 58.1441 96.9967 57.7441 96.79C57.3441 96.5833 57.0341 96.29 56.8141 95.91C56.6008 95.53 56.4941 95.08 56.4941 94.56C56.4941 94.0533 56.5975 93.61 56.8041 93.23C57.0175 92.85 57.3075 92.5533 57.6741 92.34C58.0475 92.12 58.4708 92.01 58.9441 92.01C59.2908 92.01 59.6008 92.0667 59.8741 92.18C60.1541 92.2933 60.3908 92.4567 60.5841 92.67C60.7841 92.8833 60.9341 93.1433 61.0341 93.45C61.1408 93.75 61.1941 94.09 61.1941 94.47C61.1941 94.59 61.1508 94.6833 61.0641 94.75C60.9841 94.81 60.8675 94.84 60.7141 94.84H57.5041V94.12H60.3141L60.1541 94.27C60.1541 93.9633 60.1075 93.7067 60.0141 93.5C59.9275 93.2933 59.7975 93.1367 59.6241 93.03C59.4575 92.9167 59.2475 92.86 58.9941 92.86C58.7141 92.86 58.4741 92.9267 58.2741 93.06C58.0808 93.1867 57.9308 93.37 57.8241 93.61C57.7241 93.8433 57.6741 94.1233 57.6741 94.45V94.52C57.6741 95.0667 57.8008 95.4767 58.0541 95.75C58.3141 96.0167 58.6941 96.15 59.1941 96.15C59.3675 96.15 59.5608 96.13 59.7741 96.09C59.9941 96.0433 60.2008 95.9667 60.3941 95.86C60.5341 95.78 60.6575 95.7467 60.7641 95.76C60.8708 95.7667 60.9541 95.8033 61.0141 95.87C61.0808 95.9367 61.1208 96.02 61.1341 96.12C61.1475 96.2133 61.1275 96.31 61.0741 96.41C61.0275 96.51 60.9441 96.5967 60.8241 96.67C60.5908 96.8167 60.3208 96.9267 60.0141 97C59.7141 97.0667 59.4341 97.1 59.1741 97.1Z" fill="#40A3C0"/>
<path d="M53.5658 97.08C53.3591 97.08 53.1991 97.0267 53.0858 96.92C52.9791 96.8067 52.9258 96.6467 52.9258 96.44V92.66C52.9258 92.4533 52.9791 92.2967 53.0858 92.19C53.1924 92.0833 53.3424 92.03 53.5358 92.03C53.7291 92.03 53.8791 92.0833 53.9858 92.19C54.0924 92.2967 54.1458 92.4533 54.1458 92.66V93.29H54.0458C54.1391 92.89 54.3224 92.5867 54.5958 92.38C54.8691 92.1733 55.2324 92.05 55.6858 92.01C55.8258 91.9967 55.9358 92.0333 56.0158 92.12C56.1024 92.2 56.1524 92.3267 56.1658 92.5C56.1791 92.6667 56.1391 92.8033 56.0458 92.91C55.9591 93.01 55.8258 93.07 55.6458 93.09L55.4258 93.11C55.0191 93.15 54.7124 93.2767 54.5058 93.49C54.2991 93.6967 54.1958 93.99 54.1958 94.37V96.44C54.1958 96.6467 54.1424 96.8067 54.0358 96.92C53.9291 97.0267 53.7724 97.08 53.5658 97.08Z" fill="#40A3C0"/>
<path d="M49.3945 97.1C48.8879 97.1 48.4479 96.9967 48.0745 96.79C47.7012 96.5833 47.4112 96.29 47.2045 95.91C46.9979 95.5233 46.8945 95.07 46.8945 94.55C46.8945 94.1567 46.9512 93.8067 47.0645 93.5C47.1845 93.1867 47.3545 92.92 47.5745 92.7C47.7945 92.4733 48.0579 92.3033 48.3645 92.19C48.6712 92.07 49.0145 92.01 49.3945 92.01C49.9012 92.01 50.3412 92.1133 50.7145 92.32C51.0879 92.5267 51.3779 92.82 51.5845 93.2C51.7912 93.58 51.8945 94.03 51.8945 94.55C51.8945 94.9433 51.8345 95.2967 51.7145 95.61C51.6012 95.9233 51.4345 96.1933 51.2145 96.42C50.9945 96.64 50.7312 96.81 50.4245 96.93C50.1179 97.0433 49.7745 97.1 49.3945 97.1ZM49.3945 96.15C49.6412 96.15 49.8579 96.09 50.0445 95.97C50.2312 95.85 50.3745 95.6733 50.4745 95.44C50.5812 95.2 50.6345 94.9033 50.6345 94.55C50.6345 94.0167 50.5212 93.62 50.2945 93.36C50.0679 93.0933 49.7679 92.96 49.3945 92.96C49.1479 92.96 48.9312 93.02 48.7445 93.14C48.5579 93.2533 48.4112 93.43 48.3045 93.67C48.2045 93.9033 48.1545 94.1967 48.1545 94.55C48.1545 95.0767 48.2679 95.4767 48.4945 95.75C48.7212 96.0167 49.0212 96.15 49.3945 96.15Z" fill="#40A3C0"/>
<path d="M45.6153 97.0999C45.1819 97.0999 44.8186 97.0266 44.5253 96.8799C44.2386 96.7333 44.0253 96.5199 43.8853 96.2399C43.7453 95.9533 43.6753 95.5999 43.6753 95.1799V93.0499H43.1553C42.9953 93.0499 42.8719 93.0099 42.7853 92.9299C42.6986 92.8433 42.6553 92.7266 42.6553 92.5799C42.6553 92.4266 42.6986 92.3099 42.7853 92.2299C42.8719 92.1499 42.9953 92.1099 43.1553 92.1099H43.6753V91.1999C43.6753 90.9933 43.7286 90.8366 43.8353 90.7299C43.9486 90.6233 44.1053 90.5699 44.3053 90.5699C44.5053 90.5699 44.6586 90.6233 44.7653 90.7299C44.8719 90.8366 44.9253 90.9933 44.9253 91.1999V92.1099H45.9853C46.1453 92.1099 46.2686 92.1499 46.3553 92.2299C46.4419 92.3099 46.4853 92.4266 46.4853 92.5799C46.4853 92.7266 46.4419 92.8433 46.3553 92.9299C46.2686 93.0099 46.1453 93.0499 45.9853 93.0499H44.9253V95.1099C44.9253 95.4299 44.9953 95.6699 45.1353 95.8299C45.2753 95.9899 45.5019 96.0699 45.8153 96.0699C45.9286 96.0699 46.0286 96.0599 46.1153 96.0399C46.2019 96.0199 46.2786 96.0066 46.3453 95.9999C46.4253 95.9933 46.4919 96.0199 46.5453 96.0799C46.5986 96.1333 46.6253 96.2466 46.6253 96.4199C46.6253 96.5533 46.6019 96.6733 46.5553 96.7799C46.5153 96.8799 46.4386 96.9499 46.3253 96.9899C46.2386 97.0166 46.1253 97.0399 45.9853 97.0599C45.8453 97.0866 45.7219 97.0999 45.6153 97.0999Z" fill="#40A3C0"/>
<path d="M39.6656 97.1C39.3723 97.1 39.0789 97.0766 38.7856 97.03C38.4923 96.99 38.2156 96.9266 37.9556 96.84C37.6956 96.7466 37.4623 96.6333 37.2556 96.5C37.1356 96.42 37.0523 96.3233 37.0056 96.21C36.9589 96.0966 36.9423 95.9866 36.9556 95.88C36.9756 95.7666 37.0189 95.67 37.0856 95.59C37.1589 95.5033 37.2489 95.45 37.3556 95.43C37.4623 95.41 37.5789 95.44 37.7056 95.52C37.9989 95.6933 38.3089 95.82 38.6356 95.9C38.9623 95.98 39.3056 96.02 39.6656 96.02C40.1923 96.02 40.5756 95.9333 40.8156 95.76C41.0556 95.58 41.1756 95.35 41.1756 95.07C41.1756 94.8366 41.0889 94.6533 40.9156 94.52C40.7489 94.3866 40.4589 94.2766 40.0456 94.19L38.9456 93.96C38.3123 93.8266 37.8389 93.6033 37.5256 93.29C37.2189 92.97 37.0656 92.55 37.0656 92.03C37.0656 91.7033 37.1323 91.4066 37.2656 91.14C37.3989 90.8733 37.5856 90.6433 37.8256 90.45C38.0723 90.2566 38.3623 90.11 38.6956 90.01C39.0356 89.9033 39.4089 89.85 39.8156 89.85C40.2156 89.85 40.5956 89.9 40.9556 90C41.3156 90.1 41.6389 90.2466 41.9256 90.44C42.0323 90.5133 42.1023 90.6033 42.1356 90.71C42.1756 90.8166 42.1856 90.9233 42.1656 91.03C42.1456 91.13 42.0989 91.2166 42.0256 91.29C41.9523 91.3633 41.8589 91.4066 41.7456 91.42C41.6389 91.4333 41.5156 91.4 41.3756 91.32C41.1289 91.18 40.8789 91.08 40.6256 91.02C40.3723 90.96 40.0989 90.93 39.8056 90.93C39.4989 90.93 39.2356 90.9733 39.0156 91.06C38.7956 91.1466 38.6256 91.27 38.5056 91.43C38.3923 91.5833 38.3356 91.7666 38.3356 91.98C38.3356 92.22 38.4156 92.4133 38.5756 92.56C38.7356 92.7 39.0089 92.81 39.3956 92.89L40.4856 93.12C41.1456 93.26 41.6356 93.48 41.9556 93.78C42.2823 94.08 42.4456 94.48 42.4456 94.98C42.4456 95.3 42.379 95.59 42.2456 95.85C42.1189 96.11 41.9323 96.3333 41.6856 96.52C41.4456 96.7066 41.1556 96.85 40.8156 96.95C40.4756 97.05 40.0923 97.1 39.6656 97.1Z" fill="#40A3C0"/>
<path fill-rule="evenodd" clip-rule="evenodd" d="M83.9617 34.8112C83.9873 34.9066 84.0002 35.0051 84 35.1041V40.5536C84.0008 42.4612 83.5476 44.3409 82.6786 46.0355C81.8097 47.7299 80.5504 49.1896 79.0068 50.2928L78.5882 50.5919V73.234C78.5882 74.2349 78.1931 75.1935 77.4919 75.8993C76.7909 76.6048 75.8415 77 74.8529 77H26.1471C25.1585 77 24.2091 76.6048 23.5081 75.8993C22.8069 75.1935 22.4118 74.2349 22.4118 73.234V50.5919L21.9932 50.2928C20.4496 49.1896 19.1903 47.7299 18.3214 46.0355C17.4524 44.3409 16.9992 42.4608 17 40.5532V35.1084C17.0005 35.0092 17.0141 34.9105 17.0406 34.8151L17.0411 34.8132L21.889 17.7323L21.8895 17.7304C22.1162 16.9452 22.5885 16.2559 23.2347 15.7644C23.8805 15.2731 24.6658 15.0054 25.4737 15H75.5266C76.3351 15.0048 77.1211 15.2722 77.7676 15.7636C78.4143 16.2551 78.8869 16.9446 79.1138 17.7302L79.1144 17.7323L83.9607 34.8073L83.9617 34.8112ZM24.4588 17.4342C24.1737 17.6543 23.9675 17.9601 23.8694 18.3055L19.4133 34.0638H81.6042L77.1407 18.3054C77.0414 17.9558 76.8314 17.6471 76.5412 17.4265C76.2509 17.2058 75.8963 17.0856 75.5309 17.0851H25.4623L25.454 17.0852C25.0929 17.0912 24.744 17.2139 24.4588 17.4342ZM60.2941 36.1489H40.7059V40.5532C40.7059 43.1638 41.7362 45.6687 43.5722 47.5167C45.4085 49.3648 47.9003 50.4043 50.5 50.4043C53.0996 50.4043 55.5915 49.3648 57.4278 47.5167C59.2638 45.6687 60.2941 43.1638 60.2941 40.5532V36.1489ZM38.6471 36.1489H19.0588V40.5532C19.0588 43.1638 20.0891 45.6687 21.9252 47.5167C23.7614 49.3648 26.2533 50.4043 28.8529 50.4043C31.4526 50.4043 33.9445 49.3648 35.7807 47.5167C37.6167 45.6687 38.6471 43.1638 38.6471 40.5532V36.1489ZM25.7347 52.0687L24.4706 51.7225V73.234C24.4706 73.6777 24.6457 74.1046 24.9593 74.4203C25.2732 74.7362 25.7004 74.9149 26.1471 74.9149H74.8529C75.2996 74.9149 75.7268 74.7362 76.0407 74.4203C76.3543 74.1046 76.5294 73.6777 76.5294 73.234V51.7225L75.2653 52.0687C72.8291 52.7358 70.2449 52.6022 67.8892 51.6872C65.5335 50.7721 63.5286 49.1229 62.1678 46.979L61.3227 45.6475L60.4787 46.9798C59.4086 48.6693 57.933 50.0593 56.1889 51.022C54.4448 51.9846 52.4883 52.489 50.5 52.489C48.5117 52.489 46.5551 51.9846 44.8111 51.022C43.067 50.0593 41.5914 48.6693 40.5213 46.9798L39.6773 45.6475L38.8322 46.979C37.4714 49.1229 35.4665 50.7721 33.1108 51.6872C30.7551 52.6022 28.1709 52.7358 25.7347 52.0687ZM81.9412 36.1489H62.3529V40.5532C62.3529 43.1638 63.3832 45.6687 65.2193 47.5167C67.0555 49.3648 69.5474 50.4043 72.1471 50.4043C74.7467 50.4043 77.2386 49.3648 79.0748 47.5167C80.9108 45.6687 81.9412 43.1638 81.9412 40.5532V36.1489Z" fill="#40A3C0"/>
</svg>
