<svg width="100" height="100" viewBox="0 0 100 100" fill="none" xmlns="http://www.w3.org/2000/svg">
<path d="M83.1332 95.08C82.9265 95.08 82.7665 95.0267 82.6532 94.92C82.5465 94.8067 82.4932 94.6467 82.4932 94.44V90.66C82.4932 90.4533 82.5465 90.2967 82.6532 90.19C82.7598 90.0833 82.9098 90.03 83.1032 90.03C83.2965 90.03 83.4465 90.0833 83.5532 90.19C83.6598 90.2967 83.7132 90.4533 83.7132 90.66V91.29H83.6132C83.7065 90.89 83.8898 90.5867 84.1632 90.38C84.4365 90.1733 84.7998 90.05 85.2532 90.01C85.3932 89.9967 85.5032 90.0333 85.5832 90.12C85.6698 90.2 85.7198 90.3267 85.7332 90.5C85.7465 90.6667 85.7065 90.8033 85.6132 90.91C85.5265 91.01 85.3932 91.07 85.2132 91.09L84.9932 91.11C84.5865 91.15 84.2798 91.2767 84.0732 91.49C83.8665 91.6967 83.7632 91.99 83.7632 92.37V94.44C83.7632 94.6467 83.7098 94.8067 83.6032 94.92C83.4965 95.0267 83.3398 95.08 83.1332 95.08Z" fill="#40A3C0"/>
<path d="M79.4837 95.1C78.9304 95.1 78.4537 94.9967 78.0537 94.79C77.6537 94.5833 77.3437 94.29 77.1237 93.91C76.9104 93.53 76.8037 93.08 76.8037 92.56C76.8037 92.0533 76.907 91.61 77.1137 91.23C77.327 90.85 77.617 90.5533 77.9837 90.34C78.357 90.12 78.7804 90.01 79.2537 90.01C79.6004 90.01 79.9104 90.0667 80.1837 90.18C80.4637 90.2933 80.7004 90.4567 80.8937 90.67C81.0937 90.8833 81.2437 91.1433 81.3437 91.45C81.4504 91.75 81.5037 92.09 81.5037 92.47C81.5037 92.59 81.4604 92.6833 81.3737 92.75C81.2937 92.81 81.177 92.84 81.0237 92.84H77.8137V92.12H80.6237L80.4637 92.27C80.4637 91.9633 80.417 91.7067 80.3237 91.5C80.237 91.2933 80.107 91.1367 79.9337 91.03C79.767 90.9167 79.557 90.86 79.3037 90.86C79.0237 90.86 78.7837 90.9267 78.5837 91.06C78.3904 91.1867 78.2404 91.37 78.1337 91.61C78.0337 91.8433 77.9837 92.1233 77.9837 92.45V92.52C77.9837 93.0667 78.1104 93.4767 78.3637 93.75C78.6237 94.0167 79.0037 94.15 79.5037 94.15C79.677 94.15 79.8704 94.13 80.0837 94.09C80.3037 94.0433 80.5104 93.9667 80.7037 93.86C80.8437 93.78 80.967 93.7467 81.0737 93.76C81.1804 93.7667 81.2637 93.8033 81.3237 93.87C81.3904 93.9367 81.4304 94.02 81.4437 94.12C81.457 94.2133 81.437 94.31 81.3837 94.41C81.337 94.51 81.2537 94.5967 81.1337 94.67C80.9004 94.8167 80.6304 94.9267 80.3237 95C80.0237 95.0667 79.7437 95.1 79.4837 95.1Z" fill="#40A3C0"/>
<path d="M71.8436 95.08C71.6436 95.08 71.4903 95.0267 71.3836 94.92C71.277 94.8067 71.2236 94.6467 71.2236 94.44V90.66C71.2236 90.4533 71.277 90.2967 71.3836 90.19C71.4903 90.0833 71.6403 90.03 71.8336 90.03C72.027 90.03 72.177 90.0833 72.2836 90.19C72.3903 90.2967 72.4436 90.4533 72.4436 90.66V91.34L72.3336 91.09C72.4803 90.7367 72.707 90.47 73.0136 90.29C73.327 90.1033 73.6803 90.01 74.0736 90.01C74.467 90.01 74.7903 90.0833 75.0436 90.23C75.297 90.3767 75.487 90.6 75.6136 90.9C75.7403 91.1933 75.8036 91.5667 75.8036 92.02V94.44C75.8036 94.6467 75.7503 94.8067 75.6436 94.92C75.537 95.0267 75.3836 95.08 75.1836 95.08C74.9836 95.08 74.827 95.0267 74.7136 94.92C74.607 94.8067 74.5536 94.6467 74.5536 94.44V92.08C74.5536 91.7 74.4803 91.4233 74.3336 91.25C74.1936 91.0767 73.9736 90.99 73.6736 90.99C73.307 90.99 73.0136 91.1067 72.7936 91.34C72.5803 91.5667 72.4736 91.87 72.4736 92.25V94.44C72.4736 94.8667 72.2636 95.08 71.8436 95.08Z" fill="#40A3C0"/>
<path d="M67.3652 95.1C67.0118 95.1 66.6952 95.0333 66.4152 94.9C66.1418 94.76 65.9252 94.5733 65.7652 94.34C65.6118 94.1067 65.5352 93.8433 65.5352 93.55C65.5352 93.19 65.6285 92.9067 65.8152 92.7C66.0018 92.4867 66.3052 92.3333 66.7252 92.24C67.1452 92.1467 67.7085 92.1 68.4152 92.1H68.9152V92.82H68.4252C68.0118 92.82 67.6818 92.84 67.4352 92.88C67.1885 92.92 67.0118 92.99 66.9052 93.09C66.8052 93.1833 66.7552 93.3167 66.7552 93.49C66.7552 93.71 66.8318 93.89 66.9852 94.03C67.1385 94.17 67.3518 94.24 67.6252 94.24C67.8452 94.24 68.0385 94.19 68.2052 94.09C68.3785 93.9833 68.5152 93.84 68.6152 93.66C68.7152 93.48 68.7652 93.2733 68.7652 93.04V91.89C68.7652 91.5567 68.6918 91.3167 68.5452 91.17C68.3985 91.0233 68.1518 90.95 67.8052 90.95C67.6118 90.95 67.4018 90.9733 67.1752 91.02C66.9552 91.0667 66.7218 91.1467 66.4752 91.26C66.3485 91.32 66.2352 91.3367 66.1352 91.31C66.0418 91.2833 65.9685 91.23 65.9152 91.15C65.8618 91.0633 65.8352 90.97 65.8352 90.87C65.8352 90.77 65.8618 90.6733 65.9152 90.58C65.9685 90.48 66.0585 90.4067 66.1852 90.36C66.4918 90.2333 66.7852 90.1433 67.0652 90.09C67.3518 90.0367 67.6118 90.01 67.8452 90.01C68.3252 90.01 68.7185 90.0833 69.0252 90.23C69.3385 90.3767 69.5718 90.6 69.7252 90.9C69.8785 91.1933 69.9552 91.5733 69.9552 92.04V94.44C69.9552 94.6467 69.9052 94.8067 69.8052 94.92C69.7052 95.0267 69.5618 95.08 69.3752 95.08C69.1885 95.08 69.0418 95.0267 68.9352 94.92C68.8352 94.8067 68.7852 94.6467 68.7852 94.44V93.96H68.8652C68.8185 94.1933 68.7252 94.3967 68.5852 94.57C68.4518 94.7367 68.2818 94.8667 68.0752 94.96C67.8685 95.0533 67.6318 95.1 67.3652 95.1Z" fill="#40A3C0"/>
<path d="M62.7454 95.1C62.1921 95.1 61.7154 94.9967 61.3154 94.79C60.9154 94.5833 60.6054 94.29 60.3854 93.91C60.1721 93.53 60.0654 93.08 60.0654 92.56C60.0654 92.0533 60.1688 91.61 60.3754 91.23C60.5888 90.85 60.8788 90.5533 61.2454 90.34C61.6188 90.12 62.0421 90.01 62.5154 90.01C62.8621 90.01 63.1721 90.0667 63.4454 90.18C63.7254 90.2933 63.9621 90.4567 64.1554 90.67C64.3554 90.8833 64.5054 91.1433 64.6054 91.45C64.7121 91.75 64.7654 92.09 64.7654 92.47C64.7654 92.59 64.7221 92.6833 64.6354 92.75C64.5554 92.81 64.4388 92.84 64.2854 92.84H61.0754V92.12H63.8854L63.7254 92.27C63.7254 91.9633 63.6788 91.7067 63.5854 91.5C63.4988 91.2933 63.3688 91.1367 63.1954 91.03C63.0288 90.9167 62.8188 90.86 62.5654 90.86C62.2854 90.86 62.0454 90.9267 61.8454 91.06C61.6521 91.1867 61.5021 91.37 61.3954 91.61C61.2954 91.8433 61.2454 92.1233 61.2454 92.45V92.52C61.2454 93.0667 61.3721 93.4767 61.6254 93.75C61.8854 94.0167 62.2654 94.15 62.7654 94.15C62.9388 94.15 63.1321 94.13 63.3454 94.09C63.5654 94.0433 63.7721 93.9667 63.9654 93.86C64.1054 93.78 64.2288 93.7467 64.3354 93.76C64.4421 93.7667 64.5254 93.8033 64.5854 93.87C64.6521 93.9367 64.6921 94.02 64.7054 94.12C64.7188 94.2133 64.6988 94.31 64.6454 94.41C64.5988 94.51 64.5154 94.5967 64.3954 94.67C64.1621 94.8167 63.8921 94.9267 63.5854 95C63.2854 95.0667 63.0054 95.1 62.7454 95.1Z" fill="#40A3C0"/>
<path d="M58.8604 95.1C58.3071 95.1 57.8904 94.9433 57.6104 94.63C57.3304 94.31 57.1904 93.8433 57.1904 93.23V88.5C57.1904 88.2933 57.2438 88.1367 57.3504 88.03C57.4571 87.9233 57.6104 87.87 57.8104 87.87C58.0104 87.87 58.1638 87.9233 58.2704 88.03C58.3838 88.1367 58.4404 88.2933 58.4404 88.5V93.17C58.4404 93.4767 58.5038 93.7033 58.6304 93.85C58.7638 93.9967 58.9504 94.07 59.1904 94.07C59.2438 94.07 59.2938 94.07 59.3404 94.07C59.3871 94.0633 59.4338 94.0567 59.4804 94.05C59.5738 94.0367 59.6371 94.0633 59.6704 94.13C59.7038 94.19 59.7204 94.3167 59.7204 94.51C59.7204 94.6767 59.6871 94.8067 59.6204 94.9C59.5538 94.9933 59.4438 95.05 59.2904 95.07C59.2238 95.0767 59.1538 95.0833 59.0804 95.09C59.0071 95.0967 58.9338 95.1 58.8604 95.1Z" fill="#40A3C0"/>
<path d="M54.7341 95.1C54.2208 95.1 53.7741 94.9967 53.3941 94.79C53.0141 94.5767 52.7208 94.2767 52.5141 93.89C52.3074 93.5033 52.2041 93.05 52.2041 92.53C52.2041 92.1367 52.2608 91.7867 52.3741 91.48C52.4941 91.1667 52.6641 90.9033 52.8841 90.69C53.1041 90.47 53.3708 90.3033 53.6841 90.19C53.9974 90.07 54.3474 90.01 54.7341 90.01C54.9541 90.01 55.1908 90.04 55.4441 90.1C55.7041 90.16 55.9474 90.26 56.1741 90.4C56.2808 90.4667 56.3508 90.5467 56.3841 90.64C56.4174 90.7333 56.4241 90.83 56.4041 90.93C56.3841 91.0233 56.3408 91.1067 56.2741 91.18C56.2141 91.2467 56.1374 91.29 56.0441 91.31C55.9508 91.3233 55.8474 91.3 55.7341 91.24C55.5874 91.1533 55.4374 91.09 55.2841 91.05C55.1308 91.0033 54.9841 90.98 54.8441 90.98C54.6241 90.98 54.4308 91.0167 54.2641 91.09C54.0974 91.1567 53.9541 91.2567 53.8341 91.39C53.7208 91.5167 53.6341 91.6767 53.5741 91.87C53.5141 92.0633 53.4841 92.2867 53.4841 92.54C53.4841 93.0333 53.6008 93.4233 53.8341 93.71C54.0741 93.99 54.4108 94.13 54.8441 94.13C54.9841 94.13 55.1274 94.11 55.2741 94.07C55.4274 94.03 55.5808 93.9667 55.7341 93.88C55.8474 93.82 55.9474 93.8 56.0341 93.82C56.1274 93.84 56.2041 93.8867 56.2641 93.96C56.3241 94.0267 56.3608 94.11 56.3741 94.21C56.3874 94.3033 56.3741 94.3967 56.3341 94.49C56.3008 94.5833 56.2341 94.66 56.1341 94.72C55.9141 94.8533 55.6808 94.95 55.4341 95.01C55.1874 95.07 54.9541 95.1 54.7341 95.1Z" fill="#40A3C0"/>
<path d="M45.0175 95.08C44.8175 95.08 44.6641 95.0267 44.5575 94.92C44.4508 94.8067 44.3975 94.6467 44.3975 94.44V88.5C44.3975 88.2933 44.4508 88.1367 44.5575 88.03C44.6641 87.9233 44.8175 87.87 45.0175 87.87C45.2175 87.87 45.3708 87.9233 45.4775 88.03C45.5908 88.1367 45.6475 88.2933 45.6475 88.5V92.19H45.6675L47.3175 90.45C47.4508 90.3167 47.5675 90.2133 47.6675 90.14C47.7675 90.0667 47.9041 90.03 48.0775 90.03C48.2508 90.03 48.3808 90.0767 48.4675 90.17C48.5608 90.2567 48.6075 90.3633 48.6075 90.49C48.6075 90.6167 48.5475 90.7433 48.4275 90.87L46.6875 92.71V92.19L48.5975 94.25C48.7175 94.3767 48.7708 94.5067 48.7575 94.64C48.7508 94.7667 48.6975 94.8733 48.5975 94.96C48.4975 95.04 48.3708 95.08 48.2175 95.08C48.0308 95.08 47.8808 95.0433 47.7675 94.97C47.6608 94.8967 47.5408 94.7867 47.4075 94.64L45.6675 92.82H45.6475V94.44C45.6475 94.8667 45.4375 95.08 45.0175 95.08Z" fill="#40A3C0"/>
<path d="M39.1679 95.08C38.9679 95.08 38.8145 95.0267 38.7079 94.92C38.6012 94.8067 38.5479 94.6467 38.5479 94.44V90.66C38.5479 90.4533 38.6012 90.2967 38.7079 90.19C38.8145 90.0833 38.9645 90.03 39.1579 90.03C39.3512 90.03 39.5012 90.0833 39.6079 90.19C39.7145 90.2967 39.7679 90.4533 39.7679 90.66V91.34L39.6579 91.09C39.8045 90.7367 40.0312 90.47 40.3379 90.29C40.6512 90.1033 41.0045 90.01 41.3979 90.01C41.7912 90.01 42.1145 90.0833 42.3679 90.23C42.6212 90.3767 42.8112 90.6 42.9379 90.9C43.0645 91.1933 43.1279 91.5667 43.1279 92.02V94.44C43.1279 94.6467 43.0745 94.8067 42.9679 94.92C42.8612 95.0267 42.7079 95.08 42.5079 95.08C42.3079 95.08 42.1512 95.0267 42.0379 94.92C41.9312 94.8067 41.8779 94.6467 41.8779 94.44V92.08C41.8779 91.7 41.8045 91.4233 41.6579 91.25C41.5179 91.0767 41.2979 90.99 40.9979 90.99C40.6312 90.99 40.3379 91.1067 40.1179 91.34C39.9045 91.5667 39.7979 91.87 39.7979 92.25V94.44C39.7979 94.8667 39.5879 95.08 39.1679 95.08Z" fill="#40A3C0"/>
<path d="M34.6894 95.1C34.336 95.1 34.0194 95.0333 33.7394 94.9C33.466 94.76 33.2494 94.5733 33.0894 94.34C32.936 94.1067 32.8594 93.8433 32.8594 93.55C32.8594 93.19 32.9527 92.9067 33.1394 92.7C33.326 92.4867 33.6294 92.3333 34.0494 92.24C34.4694 92.1467 35.0327 92.1 35.7394 92.1H36.2394V92.82H35.7494C35.336 92.82 35.006 92.84 34.7594 92.88C34.5127 92.92 34.336 92.99 34.2294 93.09C34.1294 93.1833 34.0794 93.3167 34.0794 93.49C34.0794 93.71 34.156 93.89 34.3094 94.03C34.4627 94.17 34.676 94.24 34.9494 94.24C35.1694 94.24 35.3627 94.19 35.5294 94.09C35.7027 93.9833 35.8394 93.84 35.9394 93.66C36.0394 93.48 36.0894 93.2733 36.0894 93.04V91.89C36.0894 91.5567 36.016 91.3167 35.8694 91.17C35.7227 91.0233 35.476 90.95 35.1294 90.95C34.936 90.95 34.726 90.9733 34.4994 91.02C34.2794 91.0667 34.046 91.1467 33.7994 91.26C33.6727 91.32 33.5594 91.3367 33.4594 91.31C33.366 91.2833 33.2927 91.23 33.2394 91.15C33.186 91.0633 33.1594 90.97 33.1594 90.87C33.1594 90.77 33.186 90.6733 33.2394 90.58C33.2927 90.48 33.3827 90.4067 33.5094 90.36C33.816 90.2333 34.1094 90.1433 34.3894 90.09C34.676 90.0367 34.936 90.01 35.1694 90.01C35.6494 90.01 36.0427 90.0833 36.3494 90.23C36.6627 90.3767 36.896 90.6 37.0494 90.9C37.2027 91.1933 37.2794 91.5733 37.2794 92.04V94.44C37.2794 94.6467 37.2294 94.8067 37.1294 94.92C37.0294 95.0267 36.886 95.08 36.6994 95.08C36.5127 95.08 36.366 95.0267 36.2594 94.92C36.1594 94.8067 36.1094 94.6467 36.1094 94.44V93.96H36.1894C36.1427 94.1933 36.0494 94.3967 35.9094 94.57C35.776 94.7367 35.606 94.8667 35.3994 94.96C35.1927 95.0533 34.956 95.1 34.6894 95.1Z" fill="#40A3C0"/>
<path d="M30.1097 95.08C29.9031 95.08 29.7431 95.0233 29.6297 94.91C29.5231 94.79 29.4697 94.6266 29.4697 94.42V89.02H27.5197C27.3464 89.02 27.2097 88.9733 27.1097 88.88C27.0164 88.78 26.9697 88.6466 26.9697 88.48C26.9697 88.3066 27.0164 88.1766 27.1097 88.09C27.2097 87.9966 27.3464 87.95 27.5197 87.95H32.6997C32.8731 87.95 33.0064 87.9966 33.0997 88.09C33.1997 88.1766 33.2497 88.3066 33.2497 88.48C33.2497 88.6466 33.1997 88.78 33.0997 88.88C33.0064 88.9733 32.8731 89.02 32.6997 89.02H30.7497V94.42C30.7497 94.6266 30.6964 94.79 30.5897 94.91C30.4831 95.0233 30.3231 95.08 30.1097 95.08Z" fill="#40A3C0"/>
<path fill-rule="evenodd" clip-rule="evenodd" d="M42.6842 9C42.4526 9 42.2649 9.192 42.2649 9.42927C42.2649 9.66654 42.4526 9.85854 42.6842 9.85854H43.1035V14.16C41.1579 14.2414 39.2949 14.8756 37.7431 15.6428C36.0796 16.4649 34.7467 17.4533 34.0181 18.1249C33.9297 18.2063 33.8793 18.3225 33.8793 18.4439V18.5387V18.6343V18.7298V18.8258V18.9223V19.0191V19.1164V19.2136V19.3117V19.4098V19.5083V19.6072V19.7066V19.806V19.9057V20.0063V20.1069V20.208V20.309V20.4109V20.5127V20.615V20.7177V20.8204V20.9236V21.0275V21.1311V21.2355V21.3398V21.4446V21.5499V21.6555V21.7611V21.8672V21.9737V22.0802V22.1871V22.2944V22.4021V22.5098V22.618V22.7262V22.8352V22.9441V23.0531V23.163V23.2728V23.3826V23.4929V23.6036V23.7147V23.8257V23.9373V24.0488V24.1607V24.273V24.3854V24.4982V24.6109V24.7241V24.8377V24.9513V25.0649V25.1794V25.2938V25.4083V25.5231V25.6384V25.7537V25.869V25.9847V26.1008V26.2169V26.3335V26.45V26.567V26.6839V26.8013V26.9187V27.0365V27.1543V27.2725V27.3907V27.5089V27.6276V27.7466V27.8657V27.9847V28.1042V28.2237V28.3436V28.4635V28.5838V28.7041V28.8244V28.9451V29.0659V29.187V29.3082V29.4293V29.5509V29.6725V29.794V29.916V30.038V30.1604V30.2828V30.4052V30.5276V30.6505V30.7737V30.8965V31.0198V31.143V31.2667V31.39V31.514V31.6377V31.7618V31.8859V32.01V32.1341V32.2586V32.3831V32.5076V32.6325V32.7574V32.8823V33.0073V33.1322V33.2575V33.3829V33.5082V33.6336V33.7593V33.8851V34.0108V34.1366V34.2624V34.3886V34.5143V34.6405V34.7667V34.8929V35.019V35.1456V35.2718V35.3984V35.525V35.6516V35.7782V35.9048V36.0319V36.1585V36.2855V36.4121V36.5391V36.6661V36.7931V36.9202V37.0472V37.1742V37.3012V37.4282V37.5557V37.6827V37.8097V37.9372V38.0642V38.1912V38.3186V38.4457V38.5731V38.7001V38.8276V38.9546V39.082V39.209V39.3365V39.4635V39.5909V39.718V39.845V39.972V40.0994V40.2265V40.3535V40.4805V40.6075V40.7345V40.8611V40.9882V41.1152V41.2418V41.3684V41.4954V41.622V41.7486V41.8752V42.0018V42.128V42.2546V42.3808V42.507V42.6331V42.7593V42.8855V43.0117V43.1374V43.2632V43.389V43.5147V43.6405V43.7658V43.8912V44.0165V44.1419V44.2672V44.3921V44.5171V44.642V44.7669V44.8914V45.0159V45.1404V45.2649V45.389V45.5131V45.6372V45.7609V45.8845V46.0082V46.1319V46.2551V46.3784V46.5016V46.6244V46.7473V46.8701V46.9925V47.1149V47.2373V47.3593V47.4813V47.6033V47.7249V47.8464V47.968V48.0891V48.2103V48.331V48.4518V48.5721V48.6928V48.8127V48.933V49.0525V49.1724V49.2919V49.4113V49.5304V49.649V49.7681V49.8863V50.0049V50.1231V50.2409V50.3587V50.4761V50.5935V50.7109V50.8278V50.9444V51.0609V51.177V51.2932V51.4093V51.5246V51.6403V51.7551V51.8704V51.9849V52.0993V52.2137V52.3278V52.4414V52.555V52.6682V52.7814V52.8941V53.0069V53.1188V53.2312V53.3427V53.4542V53.5657V53.6764V53.7875V53.8977V54.008V54.1178V54.2276V54.337V54.446V54.5546V54.6632V54.7713V54.8795V54.9872V55.0946V55.2014V55.3083V55.4148V55.5209V55.6269V55.7326V55.8378V55.9426V56.0474V56.1518V56.2558V56.3597V56.4628V56.566V56.6687V56.771V56.8733V56.9751V57.0766V57.1776V57.2782V57.3788V57.479V57.5784V57.6781V57.7771V57.8756V57.9741V58.0722V58.1699V58.2671V58.364V58.4604V58.5568V58.6524V58.748V58.8431V58.9379V59.0322V59.1261V59.2196V59.3126V59.4057V59.4979V59.5901V59.6815V59.7729V59.8639V59.9544V60.0442V60.1339V60.2232V60.312V60.4005V60.4885V60.5761V60.6633V60.7501V60.8365V60.9224V61.0079V61.093V61.1777V61.262V61.3458V61.4292V61.5122V61.5948V61.677V61.7587V61.8396V61.9205V62.0006V62.0807V62.1599V62.2387V62.3175V62.3955V62.473V62.5502V62.6269V62.7028V62.7786V62.8537V62.9283V63.0029V63.0767V63.1501V63.2226V63.2951V63.3668V63.4381V63.5093V63.5793V63.6493V63.7189V63.7877V63.856V63.9239V63.9914V64.0581V64.1247V64.1905V64.2555V64.3205V64.3846V64.4484V64.5117V64.5745V64.6366V64.6982V64.7594V64.8202V64.8801V64.9397V64.9988V65.0571V65.1149V65.1723V65.2289V65.2851V65.3409V65.3962V65.4507V65.5048V65.558V65.6108V65.6632V65.7152V65.7664V65.8167V65.867V65.9164V65.9651V66.0133V66.0611V66.1084V66.155V66.2007V66.2459V66.2908V66.3348V66.3784V66.4216V66.4639V66.5054V66.5465V66.5872V66.627V66.6664V66.705V66.7431V66.7804V66.8173V66.8538V66.889V66.9242V66.9586V66.9921V67.0252V67.0575V67.0894V67.1204V67.151V67.1808V67.2097V67.2382V67.2663V67.2935V67.3199V67.3459V67.3711V67.3958V67.4197V67.4428V67.4654V67.4872V67.5086V67.5291V67.5488V67.5681V67.5866V67.6046V67.6218V67.6381V67.654V67.6687V67.6834V67.6968V67.7098V67.722V67.7337V67.7446V67.7547V67.7643V67.7727V67.7807V67.7882V67.7945V67.8004V67.8058V67.81C33.8793 68.2133 34.0899 68.4866 34.3406 68.6685H30.5251V76.3954H80V68.6685H76.0237C76.1553 68.5369 76.2612 68.3856 76.3438 68.2288C76.5748 67.7907 76.6458 67.2856 76.6458 66.9515V66.8609V66.7695V66.6781V66.5863V66.4941V66.4019V66.3088V66.2157V66.1218V66.0279V65.934V65.8393V65.7441V65.649V65.5534V65.4574V65.3614V65.2646V65.1677V65.0705V64.9728V64.8751V64.7766V64.6781V64.5796V64.4802V64.3809V64.2811V64.1809V64.0807V63.9797V63.8787V63.7776V63.6762V63.5743V63.472V63.3693V63.2666V63.1635V63.0604V62.9568V62.8528V62.7489V62.6441V62.5397V62.4345V62.3293V62.2236V62.118V62.0119V61.9059V61.799V61.6921V61.5852V61.4778V61.3701V61.2624V61.1542V61.0461V60.9375V60.8285V60.7195V60.6101V60.5007V60.3908V60.281V60.1708V60.0601V59.9494V59.8387V59.7276V59.6161V59.5046V59.3927V59.2808V59.1688V59.0561V58.9437V58.831V58.7178V58.6046V58.491V58.3774V58.2638V58.1497V58.0357V57.9213V57.8064V57.692V57.5767V57.4618V57.3465V57.2308V57.1151V56.9994V56.8837V56.7672V56.6511V56.5345V56.418V56.301V56.1841V56.0671V55.9497V55.8324V55.7146V55.5968V55.479V55.3612V55.2429V55.1247V55.0061V54.8875V54.7688V54.6502V54.5311V54.4121V54.2926V54.1735V54.0541V53.9342V53.8147V53.6948V53.5749V53.455V53.3347V53.2144V53.0941V52.9738V52.853V52.7323V52.6116V52.4908V52.3697V52.249V52.1278V52.0062V51.8851V51.7635V51.6424V51.5208V51.3992V51.2772V51.1557V51.0337V50.9117V50.7897V50.6677V50.5457V50.4237V50.3013V50.1789V50.0565V49.9345V49.8117V49.6893V49.5669V49.4445V49.3216V49.1988V49.0764V48.9536V48.8307V48.7079V48.5851V48.4622V48.3394V48.2166V48.0938V47.9705V47.8477V47.7249V47.6016V47.4788V47.3555V47.2327V47.1095V46.9866V46.8634V46.7406V46.6177V46.4945V46.3716V46.2484V46.1256V46.0023V45.8795V45.7567V45.6334V45.5106V45.3878V45.2649V45.1421V45.0193V44.8965V44.7736V44.6512V44.5284V44.4056V44.2831V44.1607V44.0379V43.9155V43.7931V43.6707V43.5487V43.4263V43.3043V43.1819V43.0599V42.9379V42.8159V42.6939V42.5724V42.4504V42.3288V42.2072V42.0857V41.9645V41.8429V41.7218V41.6006V41.4795V41.3587V41.2376V41.1169V40.9961V40.8754V40.7551V40.6348V40.5145V40.3941V40.2738V40.1539V40.034V39.9146V39.7947V39.6752V39.5557V39.4367V39.3172V39.1986V39.0795V38.9609V38.8422V38.7236V38.6054V38.4872V38.3689V38.2511V38.1334V38.0156V37.8982V37.7808V37.6634V37.5465V37.4295V37.313V37.1964V37.0799V36.9638V36.8476V36.7315V36.6158V36.5005V36.3852V36.27V36.1547V36.0398V35.9254V35.8109V35.6965V35.5825V35.4684V35.3548V35.2412V35.128V35.0149V34.9021V34.7893V34.677V34.5646V34.4527V34.3408V34.2288V34.1177V34.0062V33.8951V33.7845V33.6742V33.5636V33.4537V33.3439V33.2341V33.1246V33.0156V32.9067V32.7981V32.6895V32.5813V32.4732V32.3655V32.2581V32.1508V32.0439V31.9374V31.831V31.7249V31.6188V31.5132V31.408V31.3028V31.198V31.0936V30.9892V30.8852V30.7813V30.6777V30.5746V30.4719V30.3692V30.2669V30.165V30.0632V29.9617V29.8607V29.7601V29.6595V29.5593V29.4591V29.3597V29.2604V29.1614V29.0629V28.9644V28.8663V28.7686V28.6714V28.5741V28.4773V28.3809V28.2849V28.1893V28.0937V27.9986V27.9038V27.8095V27.7156V27.6217V27.5282V27.4356V27.3429V27.2503V27.1585V27.0667V26.9757V26.8847V26.7942V26.704V26.6143V26.5246V26.4357V26.3469V26.2588V26.1708V26.0832V25.996V25.9092V25.8229V25.7369V25.6514V25.5659V25.4812V25.3965V25.3127V25.2288V25.1458V25.0628V24.9807V24.8985V24.8168V24.7354V24.6549V24.5745V24.4944V24.4152V24.3359V24.2571V24.1787V24.1012V24.0236V23.9465V23.8702V23.7939V23.7184V23.643V23.5684V23.4937V23.42V23.3466V23.2736V23.2011V23.129V23.0573V22.9861V22.9152V22.8452V22.7752V22.706V22.6369V22.5685V22.5006V22.4331V22.3665V22.2998V22.2336V22.1682V22.1032V22.0387V21.9745V21.9112V21.8479V21.7855V21.7234V21.6618V21.6006V21.5398V21.4799V21.4203V21.3612V21.3025V21.2447V21.1872V21.1302V21.0736V21.0175V20.9621V20.9072V20.8527V20.7991V20.7458V20.693V20.6406V20.589V20.5379V20.4872V20.4369V20.3874V20.3383V20.2897V20.2419V20.1946V20.148V20.1015V20.0558V20.0109V19.9661V19.9225V19.8789V19.8361V19.7938V19.7519V19.7108V19.6705V19.6303V19.5909V19.5523V19.5142V19.4765V19.4391V19.4031V19.367V19.3318V19.297V19.2631V19.2295V19.1968V19.1646V19.1327V19.1021V19.0715V19.0417V19.0124V18.9839V18.9562V18.9285V18.9021V18.8761V18.8506V18.8258V18.8015V18.7781V18.755V18.7328V18.7114V18.6904V18.6699V18.6502V18.6313V18.6129V18.5953V18.5781V18.5617V18.5458V18.5307V18.5165V18.5026V18.4896V18.4771V18.4653V18.4544V18.4439C76.6458 18.0922 76.4877 17.7841 76.2749 17.5292C76.0622 17.2748 75.7708 17.0434 75.4391 16.8321C74.7751 16.4087 73.8759 16.0209 72.9043 15.6772C71.095 15.0374 68.9584 14.5248 67.4216 14.2238V9.85854H67.8409C68.0725 9.85854 68.2602 9.66654 68.2602 9.42927C68.2602 9.192 68.0725 9 67.8409 9H67.0023H43.5227H42.6842ZM43.942 14.5805V9.85854H66.5831V14.5805V14.9389L66.9273 15.0027C68.4523 15.2869 70.7359 15.8184 72.6305 16.4887C73.5807 16.8245 74.411 17.188 74.9961 17.5607C75.289 17.7476 75.502 17.925 75.6376 18.0876C75.7732 18.2498 75.8072 18.3664 75.8072 18.4439V18.4544V18.4653V18.4771V18.4896V18.5026V18.5165V18.5307V18.5458V18.5617V18.5781V18.5953V18.6129V18.6313V18.6502V18.6699V18.6904V18.7114V18.7328V18.755V18.7781V18.8015V18.8258V18.8506V18.8761V18.9021V18.9285V18.9562V18.9839V19.0124V19.0417V19.0715V19.1021V19.1327V19.1646V19.1968V19.2295V19.2631V19.297V19.3318V19.367V19.4031V19.4391V19.4765V19.5142V19.5523V19.5909V19.6303V19.6705V19.7108V19.7519V19.7938V19.8361V19.8789V19.9225V19.9661V20.0109V20.0558V20.1015V20.148V20.1946V20.2419V20.2897V20.3383V20.3874V20.4369V20.4872V20.5379V20.589V20.6406V20.693V20.7458V20.7991V20.8527V20.9072V20.9621V21.0175V21.0736V21.1302V21.1872V21.2447V21.3025V21.3612V21.4203V21.4799V21.5398V21.6006V21.6618V21.7234V21.7855V21.8479V21.9112V21.9745V22.0387V22.1032V22.1682V22.2336V22.2998V22.3665V22.4331V22.5006V22.5685V22.6369V22.706V22.7752V22.8452V22.9152V22.9861V23.0573V23.129V23.2011V23.2736V23.3466V23.42V23.4937V23.5684V23.643V23.7184V23.7939V23.8702V23.9465V24.0236V24.1012V24.1787V24.2571V24.3359V24.4152V24.4944V24.5745V24.6549V24.7354V24.8168V24.8985V24.9807V25.0628V25.1458V25.2288V25.3127V25.3965V25.4812V25.5659V25.6514V25.7369V25.8229V25.9092V25.996V26.0832V26.1708V26.2588V26.3469V26.4357V26.5246V26.6143V26.704V26.7942V26.8847V26.9757V27.0667V27.1585V27.2503V27.3429V27.4356V27.5282V27.6217V27.7156V27.8095V27.9038V27.9986V28.0937V28.1893V28.2849V28.3809V28.4773V28.5741V28.6714V28.7686V28.8663V28.9644V29.0629V29.1614V29.2604V29.3597V29.4591V29.5593V29.6595V29.7601V29.8607V29.9617V30.0632V30.165V30.2669V30.3692V30.4719V30.5746V30.6777V30.7813V30.8852V30.9892V31.0936V31.198V31.3028V31.408V31.5132V31.6188V31.7249V31.831V31.9374V32.0439V32.1508V32.2581V32.3655V32.4732V32.5813V32.6895V32.7981V32.9067V33.0156V33.1246V33.2341V33.3439V33.4537V33.5636V33.6742V33.7845V33.8951V34.0062V34.1177V34.2288V34.3408V34.4527V34.5646V34.677V34.7893V34.9021V35.0149V35.128V35.2412V35.3548V35.4684V35.5825V35.6965V35.8109V35.9254V36.0398V36.1547V36.27V36.3852V36.5005V36.6158V36.7315V36.8476V36.9638V37.0799V37.1964V37.313V37.4295V37.5465V37.6634V37.7808V37.8982V38.0156V38.1334V38.2511V38.3689V38.4872V38.6054V38.7236V38.8422V38.9609V39.0795V39.1986V39.3172V39.4367V39.5557V39.6752V39.7947V39.9146V40.034V40.1539V40.2738V40.3941V40.5145V40.6348V40.7551V40.8754V40.9961V41.1169V41.2376V41.3587V41.4795V41.6006V41.7218V41.8429V41.9645V42.0857V42.2072V42.3288V42.4504V42.5724V42.6939V42.8159V42.9379V43.0599V43.1819V43.3043V43.4263V43.5487V43.6707V43.7931V43.9155V44.0379V44.1607V44.2831V44.4056V44.5284V44.6512V44.7736V44.8965V45.0193V45.1421V45.2649V45.3878V45.5106V45.6334V45.7567V45.8795V46.0023V46.1256V46.2484V46.3716V46.4945V46.6177V46.7406V46.8634V46.9866V47.1095V47.2327V47.3555V47.4788V47.6016V47.7249V47.8477V47.9705V48.0938V48.2166V48.3394V48.4622V48.5851V48.7079V48.8307V48.9536V49.0764V49.1988V49.3216V49.4445V49.5669V49.6893V49.8117V49.9345V50.0565V50.1789V50.3013V50.4237V50.5457V50.6677V50.7897V50.9117V51.0337V51.1557V51.2772V51.3992V51.5208V51.6424V51.7635V51.8851V52.0062V52.1278V52.249V52.3697V52.4908V52.6116V52.7323V52.853V52.9738V53.0941V53.2144V53.3347V53.455V53.5749V53.6948V53.8147V53.9342V54.0541V54.1735V54.2926V54.4121V54.5311V54.6502V54.7688V54.8875V55.0061V55.1247V55.2429V55.3612V55.479V55.5968V55.7146V55.8324V55.9497V56.0671V56.1841V56.301V56.418V56.5345V56.6511V56.7672V56.8837V56.9994V57.1151V57.2308V57.3465V57.4618V57.5767V57.692V57.8064V57.9213V58.0357V58.1497V58.2638V58.3774V58.491V58.6046V58.7178V58.831V58.9437V59.0561V59.1688V59.2808V59.3927V59.5046V59.6161V59.7276V59.8387V59.9494V60.0601V60.1708V60.281V60.3908V60.5007V60.6101V60.7195V60.8285V60.9375V61.0461V61.1542V61.2624V61.3701V61.4778V61.5852V61.6921V61.799V61.9059V62.0119V62.118V62.2236V62.3293V62.4345V62.5397V62.6441V62.7489V62.8528V62.9568V63.0604V63.1635V63.2666V63.3693V63.472V63.5743V63.6762V63.7776V63.8787V63.9797V64.0807V64.1809V64.2811V64.3809V64.4802V64.5796V64.6781V64.7766V64.8751V64.9728V65.0705V65.1677V65.2646V65.3614V65.4574V65.5534V65.649V65.7441V65.8393V65.934V66.0279V66.1218V66.2157V66.3088V66.4019V66.4941V66.5863V66.6781V66.7368C75.5342 66.7368 74.3208 66.8052 72.8699 66.887L72.8669 66.8872L72.8459 66.8884C72.4811 66.9089 72.1015 66.9303 71.7183 66.9517C69.8219 67.0574 67.8314 67.1624 67.0416 67.1659C66.5257 66.9647 65.8688 66.9071 65.1691 66.9197C65.202 66.8609 65.2326 66.799 65.2602 66.7339C65.4869 66.2001 65.4434 65.6299 65.2135 65.1322L60.6137 54.0008L60.4793 53.6754L60.2014 53.4658L52.9122 47.9668L55.7278 45.1157C56.0345 44.6791 56.2752 44.198 56.4417 43.6885L56.6667 43L58.7277 47.7337L58.9115 48.1518L59.3121 48.3568L67.6977 52.6495C68.319 52.9676 69.0746 52.7098 69.3852 52.0736C69.6959 51.4375 69.444 50.6639 68.8227 50.3458L60.8377 46.2581L58.099 40.0311C59.7285 40.2569 62.1909 40.8163 65.7804 41.9923L66.5441 42.2425L67.088 41.6393L71.1951 37.084V37.761H72.0337V38.6195H71.6144H71.3553L71.2394 38.8568L70.8201 39.7153L70.685 39.9921L70.8987 40.2109L71.3179 40.6401L71.4407 40.7659H71.6144H73.2915H73.4652L73.588 40.6401L74.0073 40.2109L74.221 39.9921L74.0858 39.7153L73.6665 38.8568L73.5507 38.6195H73.2915H72.8723V37.761V30.8926V29.6048H73.2915H73.4652L73.588 29.479L74.0073 29.0498L74.221 28.831L74.0858 28.5542L73.6665 27.6957L73.5507 27.4584H73.2915H71.6144H71.3553L71.2394 27.6957L70.8201 28.5542L70.685 28.831L70.8987 29.0498L71.3179 29.479L71.4407 29.6048H71.6144H72.0337V30.8926H71.1951V33.8975C70.8564 33.8976 70.5187 34.0369 70.2709 34.3118L65.7808 39.2919C60.8319 37.7194 57.854 37.2663 56.1593 37.333C56.14 37.3321 56.1206 37.3317 56.1012 37.3317C55.9574 37.3317 55.8126 37.3457 55.6689 37.3701C55.3455 37.4077 55.0476 37.4716 54.7837 37.5696C54.5981 37.6386 54.3573 37.7513 54.1368 37.9382C53.7853 38.1215 53.4198 38.3398 53.0515 38.5811C51.9954 39.2731 50.8328 40.2101 49.7854 41.2261C48.7456 42.2346 47.7654 43.373 47.1204 44.4787C46.7981 45.0312 46.5289 45.6271 46.3998 46.2328C46.2697 46.8428 46.2663 47.5463 46.5904 48.2101C47.0373 49.1252 47.8719 49.9643 48.7471 50.6979C49.6498 51.4545 50.7318 52.2083 51.8131 52.9255C52.3467 53.2794 52.8887 53.63 53.4152 53.9706L53.4438 53.9891C53.9816 54.337 54.5023 54.674 54.9942 55.0014C55.8768 55.5889 56.6194 56.1151 57.1611 56.5765L61.6582 67.0409L61.7533 67.262L61.7589 67.2678C61.2331 67.335 60.747 67.3897 60.3309 67.4076C60.0257 67.4208 59.7683 67.4136 59.5667 67.38C59.3599 67.3456 59.2425 67.2884 59.1843 67.2288C58.9063 66.9442 58.4828 66.8973 58.0724 66.9249C57.6523 66.9531 57.1765 67.0651 56.7344 67.1717L56.6763 67.1857C56.2464 67.2893 55.8544 67.3839 55.5416 67.4081C55.3786 67.4206 55.2555 67.4123 55.1688 67.3861C55.0879 67.3616 55.0511 67.3262 55.0308 67.2846C54.9531 67.1255 54.8308 67.0211 54.6769 66.9664C54.5323 66.9151 54.3687 66.9108 54.2031 66.9252C53.9611 66.9463 53.6601 67.0145 53.3234 67.0908L53.322 67.0911C53.207 67.1172 53.088 67.1441 52.9657 67.1705C51.9828 67.3824 50.6565 67.5901 49.0242 67.1724C48.4976 67.0375 47.7782 66.9442 46.9352 66.8831C49.2526 64.4312 53.0086 59.9763 53.5854 58.795C53.7526 58.4525 53.9201 57.289 53.5541 55.9591C53.3613 55.2585 52.8823 54.6923 52.3297 54.2344C50.8019 52.9683 47.7155 50.4357 47.7155 50.6389C47.7155 50.7156 47.8169 50.991 47.9621 51.3854C48.3284 52.3802 48.9733 54.1318 48.9733 55.3611C48.9733 57.078 48.9733 57.9368 48.554 58.366L44.129 63.5937C43.4611 64.3826 42.9389 65.3777 43.1204 66.4051C43.1448 66.5436 43.176 66.6711 43.2131 66.7884C42.8776 66.7906 42.5386 66.795 42.1983 66.8011C39.4273 66.8511 36.5389 67.0222 34.7179 67.1653V67.151V67.1204V67.0894V67.0575V67.0252V66.9921V66.9586V66.9242V66.889V66.8538V66.8173V66.7804V66.7431V66.705V66.6664V66.627V66.5872V66.5465V66.5054V66.4639V66.4216V66.3784V66.3348V66.2908V66.2459V66.2007V66.155V66.1084V66.0611V66.0133V65.9651V65.9164V65.867V65.8167V65.7664V65.7152V65.6632V65.6108V65.558V65.5048V65.4507V65.3962V65.3409V65.2851V65.2289V65.1723V65.1149V65.0571V64.9988V64.9397V64.8801V64.8202V64.7594V64.6982V64.6366V64.5745V64.5117V64.4484V64.3846V64.3205V64.2555V64.1905V64.1247V64.0581V63.9914V63.9239V63.856V63.7877V63.7189V63.6493V63.5793V63.5093V63.4381V63.3668V63.2951V63.2226V63.1501V63.0767V63.0029V62.9283V62.8537V62.7786V62.7028V62.6269V62.5502V62.473V62.3955V62.3175V62.2387V62.1599V62.0807V62.0006V61.9205V61.8396V61.7587V61.677V61.5948V61.5122V61.4292V61.3458V61.262V61.1777V61.093V61.0079V60.9224V60.8365V60.7501V60.6633V60.5761V60.4885V60.4005V60.312V60.2232V60.1339V60.0442V59.9544V59.8639V59.7729V59.6815V59.5901V59.4979V59.4057V59.3126V59.2196V59.1261V59.0322V58.9379V58.8431V58.748V58.6524V58.5568V58.4604V58.364V58.2671V58.1699V58.0722V57.9741V57.8756V57.7771V57.6781V57.5784V57.479V57.3788V57.2782V57.1776V57.0766V56.9751V56.8733V56.771V56.6687V56.566V56.4628V56.3597V56.2558V56.1518V56.0474V55.9426V55.8378V55.7326V55.6269V55.5209V55.4148V55.3083V55.2014V55.0946V54.9872V54.8795V54.7713V54.6632V54.5546V54.446V54.337V54.2276V54.1178V54.008V53.8977V53.7875V53.6764V53.5657V53.4542V53.3427V53.2312V53.1188V53.0069V52.8941V52.7814V52.6682V52.555V52.4414V52.3278V52.2137V52.0993V51.9849V51.8704V51.7551V51.6403V51.5246V51.4093V51.2932V51.177V51.0609V50.9444V50.8278V50.7109V50.5935V50.4761V50.3587V50.2409V50.1231V50.0049V49.8863V49.7681V49.649V49.5304V49.4113V49.2919V49.1724V49.0525V48.933V48.8127V48.6928V48.5721V48.4518V48.331V48.2103V48.0891V47.968V47.8464V47.7249V47.6033V47.4813V47.3593V47.2373V47.1149V46.9925V46.8701V46.7473V46.6244V46.5016V46.3784V46.2551V46.1319V46.0082V45.8845V45.7609V45.6372V45.5131V45.389V45.2649V45.1404V45.0159V44.8914V44.7669V44.642V44.5171V44.3921V44.2672V44.1419V44.0165V43.8912V43.7658V43.6405V43.5147V43.389V43.2632V43.1374V43.0117V42.8855V42.7593V42.6331V42.507V42.3808V42.2546V42.128V42.0018V41.8752V41.7486V41.622V41.4954V41.3684V41.2418V41.1152V40.9882V40.8611V40.7345V40.6075V40.4805V40.3535V40.2265V40.0994V39.972V39.845V39.718V39.5909V39.4635V39.3365V39.209V39.082V38.9546V38.8276V38.7001V38.5731V38.4457V38.3186V38.1912V38.0642V37.9372V37.8097V37.6827V37.5557V37.4282V37.3012V37.1742V37.0472V36.9202V36.7931V36.6661V36.5391V36.4121V36.2855V36.1585V36.0319V35.9048V35.7782V35.6516V35.525V35.3984V35.2718V35.1456V35.019V34.8929V34.7667V34.6405V34.5143V34.3886V34.2624V34.1366V34.0108V33.8851V33.7593V33.6336V33.5082V33.3829V33.2575V33.1322V33.0073V32.8823V32.7574V32.6325V32.5076V32.3831V32.2586V32.1341V32.01V31.8859V31.7618V31.6377V31.514V31.39V31.2667V31.143V31.0198V30.8965V30.7737V30.6505V30.5276V30.4052V30.2828V30.1604V30.038V29.916V29.794V29.6725V29.5509V29.4293V29.3082V29.187V29.0659V28.9451V28.8244V28.7041V28.5838V28.4635V28.3436V28.2237V28.1042V27.9847V27.8657V27.7466V27.6276V27.5089V27.3907V27.2725V27.1543V27.0365V26.9187V26.8013V26.6839V26.567V26.45V26.3335V26.2169V26.1008V25.9847V25.869V25.7537V25.6384V25.5231V25.4083V25.2938V25.1794V25.0649V24.9513V24.8377V24.7241V24.6109V24.4982V24.3854V24.273V24.1607V24.0488V23.9373V23.8257V23.7147V23.6036V23.4929V23.3826V23.2728V23.163V23.0531V22.9441V22.8352V22.7262V22.618V22.5098V22.4021V22.2944V22.1871V22.0802V21.9737V21.8672V21.7611V21.6555V21.5499V21.4446V21.3398V21.2355V21.1311V21.0275V20.9236V20.8204V20.7177V20.615V20.5127V20.4109V20.309V20.208V20.1069V20.0063V19.9057V19.806V19.7066V19.6072V19.5083V19.4098V19.3117V19.2303V19.2136V19.1164V19.0191V18.9223V18.8258V18.7298C34.7179 18.6715 34.7426 18.6161 34.7863 18.5784C35.4923 17.9683 36.6664 17.1284 38.1077 16.4158C39.7011 15.6281 41.594 15.0098 43.5227 15.0098H43.942V14.5805ZM43.399 67.2167C43.0068 67.2184 42.6078 67.223 42.2057 67.2303C39.4365 67.2803 36.5477 67.4517 34.734 67.5946C34.7312 67.5948 34.7284 67.595 34.7257 67.5951C34.7231 67.5952 34.7205 67.5952 34.7179 67.5952V67.6046V67.6218V67.6381V67.654V67.6687V67.6834V67.6968V67.7098V67.722V67.7337V67.7446V67.7547V67.7643V67.7727V67.7807V67.7882V67.7945V67.8004V67.8058V67.81C34.7179 67.859 34.7499 67.9752 35.0695 68.093C35.3584 68.1994 35.7255 68.2393 35.9757 68.2393H36.0496H36.1237H36.1981H36.2728H36.3479H36.4231H36.4987H36.5746H36.6507H36.7271H36.8038H36.8808H36.958H37.0356H37.1133H37.1914H37.2697H37.3483H37.4271H37.5062H37.5856H37.6653H37.7451H37.8253H37.9057H37.9863H38.0672H38.1484H38.2298H38.3114H38.3933H38.4754H38.5578H38.6404H38.7232H38.8063H38.8896H38.9732H39.0569H39.1409H39.2252H39.3096H39.3943H39.4792H39.5643H39.6496H39.7352H39.821H39.907H39.9932H40.0796H40.1662H40.253H40.3401H40.4273H40.5147H40.6024H40.6902H40.7782H40.8665H40.9549H41.0435H41.1323H41.2213H41.3105H41.3998H41.4894H41.5791H41.669H41.7591H41.8494H41.9398H42.0304H42.1212H42.2122H42.3033H42.3946H42.4861H42.5777H42.6695H42.7614H42.8535H42.9458H43.0382H43.1308H43.2235H43.3164H43.4094H43.5026H43.5959H43.6894H43.783H43.8767H43.9706H44.0646H44.1588H44.2531H44.3475H44.442H44.5367H44.6315H44.7265H44.8215H44.9167H45.012H45.1074H45.2029H45.2986H45.3944H45.4903H45.5862H45.6823H45.7785H45.8749H45.9713H46.0678H46.1644H46.2611H46.3579H46.4548H46.5518H46.6489H46.7461H46.8434H46.9408H47.0382H47.1357H47.2333H47.331H47.4288H47.5266H47.6246H47.7226H47.8207H47.9188H48.017H48.1153H48.2136H48.3121H48.4105H48.5091H48.6076H48.7063H48.805H48.9037H49.0026H49.1014H49.2003H49.2993H49.3983H49.4973H49.5964H49.6955H49.7947H49.8939H49.9932H50.0925H50.1917H50.2911H50.3905H50.4899H50.5893H50.6887H50.7882H50.8877H50.9872H51.0867H51.1863H51.2858H51.3854H51.4849H51.5845H51.6841H51.7837H51.8833H51.9829H52.0825H52.1821H52.2817H52.3813H52.4809H52.5805H52.6801H52.7797H52.8792H52.9788H53.0783H53.1778H53.2773H53.3767H53.4762H53.5756H53.675H53.7744H53.8737H53.973H54.0723H54.1715H54.2707H54.3699H54.469H54.5681H54.6671H54.7661H54.8651H54.964H55.0628H55.1616H55.2604H55.3591H55.4577H55.5563H55.6548H55.7533H55.8517H55.95H56.0483H56.1465H56.2446H56.3427H56.4407H56.5386H56.6364H56.7342H56.8319H56.9295H57.027H57.1244H57.2218H57.319H57.4162H57.5133H57.6103H57.7072H57.804H57.9007H57.9973H58.0938H58.1902H58.2865H58.3827H58.4788H58.5747H58.6706H58.7663H58.862H58.9575H59.0529H59.1482H59.2434H59.3384H59.4333H59.5281H59.6228H59.7173H59.8117H59.906H60.0001H60.0941H60.188H60.2817H60.3753H60.4687H60.562H60.6552H60.7482H60.841H60.9338H61.0263H61.1187H61.211H61.303H61.3949H61.4867H61.5783H61.6698H61.761H61.8521H61.9431H62.0338H62.1244H62.2149H62.3051H62.3952H62.4851H62.5748H62.6643H62.7536H62.8428H62.9318H63.0205H63.1091H63.1975H63.2857H63.3737H63.4615H63.5491H63.6365H63.7238H63.8107H63.8975H63.9841H64.0705H64.1567H64.2426H64.3284H64.4139H64.4992H64.5843H64.6692H64.7538H64.8383H64.9225H65.0064H65.0902H65.1737H65.257H65.34H65.4228H65.5054H65.5877H65.6698H65.7517H65.8333H65.9146H65.9958H66.0766H66.1572H66.2376H66.3177H66.3976H66.4771H66.5565H66.6356H66.7144H66.7929H66.8712H66.9492H67.027H67.1045H67.1817H67.2586H67.3352H67.4116H67.4877H67.5635H67.6391H67.7143H67.7893H67.864H67.9384H68.0125H68.0863H68.1598H68.233H68.3059H68.3785H68.4509H68.5229H68.5946H68.666H68.7371H68.8079H68.8784H68.9486H69.0184H69.088H69.1572H69.2261H69.2947H69.363H69.4309H69.4985H69.5658H69.6328H69.6994H69.7657H69.8316H69.8973H69.9626H70.0275H70.0921H70.1564H70.2203H70.2839H70.3471H70.41H70.4725H70.5347H70.5965H70.658H70.7191H70.7799H70.8403H70.9003H70.96H71.0193H71.0782H71.1368H71.195H71.2528H71.3103H71.3673H71.424H71.4803H71.5363H71.5918H71.647H71.7018H71.7562H71.8102H71.8638H71.9171H71.9699H72.0224H72.0744H72.126H72.1773H72.2281H72.2786H72.3286H72.3782H72.4274H72.4763H72.5246H72.5726H72.6202H72.6674H72.7141H72.7604H72.8063H72.8517H72.8968H72.9414H72.9856H73.0293H73.0726H73.1155H73.158H73.2H73.2416H73.2827H73.3234H73.3636H73.4034H73.4428H73.4817H73.5202H73.5582H73.5957H73.6328H73.6695H73.7056H73.7414H73.7766H73.8114H73.8457H73.8796H73.913H73.9459H73.9784H74.0104H74.0419H74.0729H74.1034H74.1335H74.1631H74.1922H74.2208H74.249H74.2766H74.3038H74.3304H74.3566H74.3822H74.4074H74.4321H74.4563H74.4799H74.5031H74.5258H74.5479H74.5696H74.5907H74.6113H74.6314H74.651H74.6701H74.6887H74.7067H74.7243H74.7413H74.7577H74.7737H74.7891H74.804H74.8183H74.8321H74.8454H74.8582H74.8704H74.8821H74.8932H74.9038H74.9138H74.9233H74.9322H74.9406H74.9485H74.9558H74.9625H74.9687C75.2779 68.2393 75.4695 68.0795 75.606 67.8205C75.7128 67.6183 75.7709 67.3753 75.7945 67.1661C75.5098 67.1682 74.3311 67.2346 72.9052 67.315L72.904 67.315C72.5295 67.3362 72.138 67.3582 71.7411 67.3803C69.8194 67.4874 67.7783 67.5952 67.0023 67.5952H66.962L66.9245 67.5799C66.4424 67.3824 65.7712 67.327 64.9982 67.3536C64.9423 67.3555 64.886 67.3579 64.8294 67.3606C64.6642 67.5213 64.4838 67.6415 64.3154 67.7278C63.9706 67.9043 63.5772 67.9919 63.1936 67.9768C62.8983 67.9652 62.5177 67.8864 62.1726 67.6467C61.5091 67.7343 60.8766 67.8138 60.3486 67.8365C60.0314 67.8502 59.7418 67.844 59.4995 67.8038C59.2625 67.7643 59.0392 67.6874 58.8878 67.5323C58.7465 67.3876 58.4886 67.3271 58.0998 67.3532C57.7206 67.3787 57.2793 67.4814 56.8304 67.5895L56.7565 67.6073C56.3417 67.7075 55.92 67.8093 55.5731 67.8361C55.3888 67.8504 55.2073 67.8453 55.05 67.7977C54.8869 67.7484 54.7402 67.6496 54.6557 67.4766C54.6286 67.421 54.5936 67.3912 54.5396 67.3721C54.4762 67.3496 54.3809 67.3405 54.2387 67.3529C54.0267 67.3714 53.7667 67.4302 53.442 67.5038C53.3213 67.5311 53.1916 67.5605 53.0521 67.5906C52.0434 67.808 50.6444 68.0295 48.9225 67.5888C48.3501 67.4423 47.5263 67.3458 46.5482 67.2877C46.5177 67.3192 46.4875 67.3502 46.4577 67.3808C45.5744 67.9837 44.0709 68.3749 43.399 67.2167ZM34.0847 10.4882C34.7657 10.6286 35.2067 11.3076 35.0695 12.0049L22.4912 75.9661C22.3541 76.6634 21.6908 77.1148 21.0098 76.9744C20.3288 76.834 19.8879 76.155 20.025 75.4577L32.6034 11.4965C32.7405 10.7993 33.4037 10.3478 34.0847 10.4882ZM58.4405 28.1372C59.4183 27.2581 60.791 26.4153 62.4366 26.6025C65.9096 26.9975 66.8119 29.8348 67.2078 31.0796C67.2758 31.2933 67.3288 31.46 67.3774 31.5594C67.5271 31.8661 67.4131 32.1373 67.0808 32.0947H66.5831C64.0718 32.0947 59.8626 31.7472 57.3589 30.8928H56.9396C56.5204 30.8928 56.7561 30.2685 56.9396 30.0342C56.9715 30.0016 57.0328 29.9254 57.1424 29.7852L57.1792 29.738C57.275 29.6151 57.3927 29.4642 57.5285 29.2977C57.6375 29.1642 57.7217 29.0353 57.8071 28.9049C57.9628 28.6669 58.1218 28.4237 58.4405 28.1372ZM57.497 31.029C57.4068 31.3976 57.3589 31.7833 57.3589 32.1804C57.3589 34.7883 59.4238 36.9024 61.971 36.9024C64.4901 36.9024 66.5375 34.8346 66.5823 32.2665C64.1161 32.2664 60.039 31.855 57.497 31.029ZM71.8735 28.3169L71.7053 28.6615L71.7881 28.7462H72.453H73.1179L73.2007 28.6615L73.0324 28.3169H71.8735ZM73.7108 31.3219H73.2915V30.4633H74.1301H74.5494V30.8926V37.761V38.1902H74.1301H73.2915V37.3317H73.7108V31.3219ZM71.8735 39.478L71.7053 39.8226L71.7881 39.9073H73.1179L73.2007 39.8226L73.0324 39.478H72.453H71.8735Z" fill="#40A3C0"/>
</svg>
